<svg width="1160" height="835" viewBox="0 0 1160 835" fill="none" xmlns="http://www.w3.org/2000/svg">
<rect width="1160" height="835" fill="#E5E5E5"/>
<g clip-path="url(#clip0_0_1)">
<rect width="1600" height="4975" transform="translate(-220 -2678)" fill="white"/>
<g opacity="0.9">
<rect x="-220" y="-69" width="1600" height="1004" fill="url(#paint0_linear_0_1)"/>
<rect x="-220" y="-69" width="1600" height="1004" fill="url(#paint1_linear_0_1)"/>
<rect x="-220" y="-69" width="1600" height="1004" fill="url(#paint2_linear_0_1)"/>
</g>
<g filter="url(#filter0_b_0_1)">
<rect width="1160" height="835" rx="20" fill="#FDFDFF" fill-opacity="0.52"/>
<rect x="0.5" y="0.5" width="1159" height="834" rx="19.5" stroke="black"/>
</g>
<path d="M747.589 503.517L747.589 503.517L747.585 503.52C744.592 505.46 741.821 507.097 739.348 508.387C737.964 509.11 736.442 509.843 735.019 510.396C733.604 510.946 732.259 511.329 731.241 511.329C730.577 511.329 729.988 511.165 729.64 510.703L729.64 510.702C729.289 510.234 729.299 509.614 729.491 508.965C729.685 508.31 730.081 507.568 730.591 506.795C731.613 505.246 733.132 503.517 734.563 502.019C735.631 500.901 736.854 499.701 738.211 498.439C733.873 498.824 729.015 499.026 724.057 499.026C716.763 499.026 709.236 498.572 703.526 497.696C700.674 497.258 698.262 496.713 696.558 496.06C695.707 495.735 695.017 495.376 694.535 494.98C694.054 494.585 693.75 494.125 693.75 493.599C693.75 493.073 694.054 492.613 694.535 492.218C695.017 491.822 695.707 491.464 696.558 491.138C698.262 490.485 700.674 489.94 703.526 489.502C709.236 488.625 716.763 488.171 724.057 488.171C729.274 488.171 734.336 488.392 738.825 488.813C736.923 487.372 735.235 486.008 733.792 484.746L733.792 484.746C732.234 483.381 730.568 481.793 729.413 480.341C728.836 479.616 728.376 478.912 728.125 478.278C727.876 477.648 727.811 477.031 728.119 476.534L728.12 476.534C728.429 476.037 729.011 475.821 729.685 475.766C730.366 475.709 731.201 475.809 732.106 476.004C733.92 476.396 736.082 477.185 737.995 477.978C740.564 479.041 743.469 480.427 746.633 482.097L746.636 482.098L749.049 483.402L749.049 483.402L749.055 483.406L752.524 485.418L752.524 485.418L752.527 485.419C755.885 487.426 759.341 489.533 762.799 491.681L762.799 491.681L763.132 491.888L763.442 492.081L763.15 492.3L762.837 492.536C762.837 492.536 762.837 492.536 762.837 492.536C759.83 494.805 756.576 497.209 753.167 499.685L753.166 499.686L751.715 500.728L751.715 500.728L751.709 500.732L747.589 503.517ZM738.869 507.467L738.869 507.467C741.309 506.193 744.051 504.573 747.018 502.65C747.018 502.65 747.018 502.65 747.019 502.649L749.295 501.145L752.558 498.844C752.558 498.844 752.559 498.843 752.559 498.843C755.735 496.537 758.776 494.293 761.607 492.163C758.37 490.157 755.139 488.19 751.997 486.311C751.997 486.311 751.996 486.311 751.996 486.311L749.777 484.998L746.146 483.013C746.145 483.013 746.145 483.013 746.144 483.012C743.008 481.357 740.133 479.986 737.598 478.938L737.598 478.938C733.916 477.413 731.774 476.895 730.538 476.796C729.298 476.697 729.039 477.02 729 477.082C728.963 477.143 728.788 477.517 729.428 478.584C730.065 479.649 731.479 481.339 734.477 483.964L734.477 483.964C736.264 485.53 738.442 487.259 740.949 489.103L741.757 489.696L742.509 490.249L741.581 490.146L740.584 490.036C735.694 489.496 729.979 489.209 724.057 489.209C715.238 489.209 707.873 489.808 702.718 490.685C700.138 491.124 698.123 491.631 696.758 492.162C696.074 492.428 695.567 492.695 695.236 492.954C694.898 493.217 694.788 493.435 694.788 493.599C694.788 493.763 694.898 493.981 695.236 494.245C695.567 494.503 696.074 494.77 696.758 495.036C698.123 495.567 700.138 496.074 702.718 496.512C707.873 497.389 715.238 497.988 724.057 497.988C729.58 497.988 734.972 497.736 739.648 497.259L740.463 497.176L741.219 497.099L740.656 497.61L740.05 498.16L740.05 498.161C738.248 499.794 736.655 501.334 735.313 502.737C732.561 505.617 731.303 507.426 730.762 508.543C730.219 509.667 730.429 510.023 730.471 510.078L730.471 510.079C730.512 510.133 730.795 510.435 732.025 510.225C733.248 510.017 735.336 509.312 738.869 507.467Z" fill="#333B41" stroke="#333B41" stroke-width="0.5"/>
<path d="M449.589 507.517L449.589 507.517L449.585 507.52C446.592 509.46 443.821 511.097 441.348 512.387C439.964 513.11 438.442 513.843 437.019 514.396C435.604 514.946 434.259 515.329 433.241 515.329C432.577 515.329 431.988 515.165 431.64 514.703L431.64 514.702C431.289 514.234 431.299 513.614 431.491 512.965C431.685 512.31 432.081 511.568 432.591 510.795C433.613 509.246 435.132 507.517 436.563 506.019C437.631 504.901 438.854 503.701 440.211 502.439C435.873 502.824 431.015 503.026 426.057 503.026C418.763 503.026 411.236 502.572 405.526 501.696C402.674 501.258 400.262 500.713 398.558 500.06C397.707 499.735 397.017 499.376 396.535 498.98C396.054 498.585 395.75 498.125 395.75 497.599C395.75 497.073 396.054 496.613 396.535 496.218C397.017 495.822 397.707 495.464 398.558 495.138C400.262 494.485 402.674 493.94 405.526 493.502C411.236 492.625 418.763 492.171 426.057 492.171C431.274 492.171 436.336 492.392 440.825 492.813C438.923 491.372 437.235 490.008 435.792 488.746L435.792 488.746C434.234 487.381 432.568 485.793 431.413 484.341C430.836 483.616 430.376 482.912 430.125 482.278C429.876 481.648 429.811 481.031 430.119 480.534L430.12 480.534C430.429 480.037 431.011 479.821 431.685 479.766C432.366 479.709 433.201 479.809 434.106 480.004C435.92 480.396 438.082 481.185 439.995 481.978C442.564 483.041 445.469 484.427 448.633 486.097L448.636 486.098L451.049 487.402L451.049 487.402L451.055 487.406L454.524 489.418L454.524 489.418L454.527 489.419C457.885 491.426 461.341 493.533 464.799 495.681L464.799 495.681L465.132 495.888L465.442 496.081L465.15 496.3L464.837 496.536C464.837 496.536 464.837 496.536 464.837 496.536C461.83 498.805 458.576 501.209 455.167 503.685L455.166 503.686L453.715 504.728L453.715 504.728L453.709 504.732L449.589 507.517ZM440.869 511.467L440.869 511.467C443.309 510.193 446.051 508.573 449.018 506.65C449.018 506.65 449.018 506.65 449.019 506.649L451.295 505.145L454.558 502.844C454.558 502.844 454.559 502.843 454.559 502.843C457.735 500.537 460.776 498.293 463.607 496.163C460.37 494.157 457.139 492.19 453.997 490.311C453.997 490.311 453.996 490.311 453.996 490.311L451.777 488.998L448.146 487.013C448.145 487.013 448.145 487.013 448.144 487.012C445.008 485.357 442.133 483.986 439.598 482.938L439.598 482.938C435.916 481.413 433.774 480.895 432.538 480.796C431.298 480.697 431.039 481.02 431 481.082C430.963 481.143 430.788 481.517 431.428 482.584C432.065 483.649 433.479 485.339 436.477 487.964L436.477 487.964C438.264 489.53 440.442 491.259 442.949 493.103L443.757 493.696L444.509 494.249L443.581 494.146L442.584 494.036C437.694 493.496 431.979 493.209 426.057 493.209C417.238 493.209 409.873 493.808 404.718 494.685C402.138 495.124 400.123 495.631 398.758 496.162C398.074 496.428 397.567 496.695 397.236 496.954C396.898 497.217 396.788 497.435 396.788 497.599C396.788 497.763 396.898 497.981 397.236 498.245C397.567 498.503 398.074 498.77 398.758 499.036C400.123 499.567 402.138 500.074 404.718 500.512C409.873 501.389 417.238 501.988 426.057 501.988C431.58 501.988 436.972 501.736 441.648 501.259L442.463 501.176L443.219 501.099L442.656 501.61L442.05 502.16L442.05 502.161C440.248 503.794 438.655 505.334 437.313 506.737C434.561 509.617 433.303 511.426 432.762 512.543C432.219 513.667 432.429 514.023 432.471 514.078L432.471 514.079C432.512 514.133 432.795 514.435 434.025 514.225C435.248 514.017 437.336 513.312 440.869 511.467Z" fill="#333B41" stroke="#333B41" stroke-width="0.5"/>
<g clip-path="url(#clip1_0_1)">
<rect x="198.5" y="418.5" width="167" height="167" rx="4.5" fill="white" stroke="url(#paint3_linear_0_1)"/>
<path d="M274.973 497.033C274.918 497.016 274.865 496.996 274.814 496.972C259.544 491.236 252.435 501.939 252.414 501.97C252.264 502.189 252.043 502.362 251.771 502.449L233.641 508.305C232.616 508.637 231.783 509.282 231.229 510.112C230.677 510.939 230.4 511.958 230.487 513.039L231.662 527.798C231.689 528.129 231.788 528.427 231.95 528.676C232.114 528.927 232.346 529.138 232.638 529.296C232.933 529.454 233.238 529.533 233.535 529.531C233.827 529.529 234.13 529.446 234.427 529.281L234.427 529.283L252.72 519.13C252.913 519.02 253.137 518.96 253.375 518.968C253.42 518.97 269.215 519.58 275.109 520.687C280.34 521.67 282.558 519.745 282.565 519.74L282.566 519.742C282.628 519.69 282.695 519.644 282.768 519.605L300.447 509.976H275.878V509.972C275.77 509.972 275.66 509.958 275.55 509.927C274.62 509.668 274.002 509.032 273.689 508.278C273.506 507.839 273.431 507.359 273.463 506.896C273.495 506.419 273.642 505.947 273.902 505.54C274.284 504.94 274.885 504.495 275.698 504.371L291.58 499.407C292.447 499.136 292.988 498.398 293.152 497.589C293.226 497.224 293.224 496.845 293.141 496.487C293.065 496.158 292.917 495.848 292.692 495.592C292.173 495 291.198 494.668 289.689 494.938L276.237 497.337V497.335C276.018 497.374 275.787 497.354 275.566 497.265C275.366 497.184 275.169 497.108 274.973 497.033ZM274.1 494.111V477.864C274.1 476.25 274.758 474.784 275.818 473.722C276.878 472.659 278.341 472 279.951 472H330.149C331.76 472 333.222 472.659 334.282 473.722C335.342 474.784 336 476.25 336 477.864V504.112C336 505.726 335.342 507.192 334.282 508.254C333.222 509.316 331.76 509.976 330.149 509.976H305.608L284.047 521.718C283.467 522.156 280.387 524.195 274.655 523.118C269.416 522.133 255.928 521.546 253.627 521.451L235.614 531.448L235.615 531.45C234.962 531.812 234.259 531.995 233.544 532C232.835 532.004 232.13 531.829 231.47 531.474C230.805 531.117 230.269 530.625 229.882 530.031C229.494 529.435 229.259 528.744 229.198 527.992L228.023 513.233C227.892 511.588 228.323 510.023 229.181 508.737C230.036 507.455 231.317 506.46 232.887 505.952L250.634 500.22C252.091 498.314 259.75 489.525 274.1 494.111ZM305.293 507.497H305.304H330.149C331.076 507.497 331.921 507.115 332.534 506.501C333.146 505.888 333.527 505.041 333.527 504.112V485.107H276.574V494.761L289.264 492.497C291.752 492.054 293.499 492.761 294.547 493.956C295.049 494.529 295.38 495.212 295.547 495.935C295.619 496.245 295.659 496.562 295.669 496.882H299.352C299.693 496.882 299.97 497.16 299.97 497.502C299.97 497.844 299.693 498.121 299.352 498.121H295.557C295.365 499.027 294.931 499.888 294.272 500.568C294.359 500.674 294.41 500.81 294.41 500.958C294.41 501.3 294.133 501.578 293.792 501.578H292.824C292.661 501.65 292.491 501.715 292.314 501.77L276.339 506.763C276.247 506.792 276.155 506.809 276.063 506.816C276.021 506.825 275.993 506.844 275.979 506.866C275.949 506.913 275.932 506.981 275.926 507.06C275.92 507.153 275.934 507.246 275.969 507.329C275.996 507.396 276.041 507.455 276.102 507.497H305.293ZM320.998 495.457C321.913 495.457 322.775 495.687 323.528 496.094C323.83 495.931 324.154 495.796 324.493 495.693C324.993 495.539 325.518 495.457 326.054 495.457C327.529 495.457 328.864 496.056 329.831 497.025C330.797 497.994 331.396 499.332 331.396 500.81C331.396 502.289 330.797 503.627 329.831 504.596C328.864 505.565 327.529 506.165 326.054 506.165C325.518 506.165 324.993 506.082 324.493 505.929C324.154 505.825 323.83 505.69 323.528 505.528C322.775 505.934 321.913 506.165 320.998 506.165C319.523 506.165 318.188 505.565 317.221 504.596C316.254 503.628 315.656 502.289 315.656 500.811C315.656 499.332 316.254 497.994 317.221 497.025C318.188 496.056 319.523 495.457 320.998 495.457ZM324.996 497.26C325.832 498.205 326.34 499.449 326.34 500.811C326.34 502.173 325.832 503.416 324.996 504.362C325.325 504.459 325.679 504.512 326.054 504.512C327.074 504.512 327.997 504.098 328.665 503.428C329.333 502.758 329.747 501.833 329.747 500.81C329.747 499.788 329.333 498.863 328.665 498.193C327.997 497.524 327.074 497.109 326.054 497.109C325.679 497.109 325.325 497.162 324.996 497.26ZM323.61 498.193C322.942 497.524 322.018 497.109 320.998 497.109C319.978 497.109 319.055 497.524 318.387 498.193C317.719 498.863 317.305 499.788 317.305 500.811C317.305 501.833 317.719 502.758 318.387 503.428C319.055 504.098 319.978 504.512 320.998 504.512C322.018 504.512 322.942 504.098 323.61 503.428C324.278 502.758 324.691 501.833 324.691 500.811C324.691 499.788 324.278 498.863 323.61 498.193ZM296.604 501.578C296.263 501.578 295.986 501.3 295.986 500.958C295.986 500.616 296.263 500.338 296.604 500.338H298.714C299.055 500.338 299.332 500.616 299.332 500.958C299.332 501.3 299.055 501.578 298.714 501.578H296.604ZM320.594 491.046C320.252 491.046 319.976 490.768 319.976 490.426C319.976 490.084 320.252 489.806 320.594 489.806H328.553C328.895 489.806 329.171 490.084 329.171 490.426C329.171 490.768 328.895 491.046 328.553 491.046H320.594ZM302.408 491.046C302.067 491.046 301.79 490.768 301.79 490.426C301.79 490.084 302.067 489.806 302.408 489.806H313.901C314.242 489.806 314.519 490.084 314.519 490.426C314.519 490.768 314.242 491.046 313.901 491.046H302.408ZM278.979 491.046C278.637 491.046 278.36 490.768 278.36 490.426C278.36 490.084 278.637 489.806 278.979 489.806H295.756C296.098 489.806 296.375 490.084 296.375 490.426C296.375 490.768 296.098 491.046 295.756 491.046H278.979ZM333.527 483.454V478.69H276.574V483.454H333.527ZM333.424 477.038C333.272 476.438 332.959 475.9 332.534 475.474C331.921 474.86 331.076 474.479 330.149 474.479H279.951C279.024 474.479 278.179 474.86 277.567 475.474C277.142 475.9 276.829 476.438 276.676 477.038H333.424Z" fill="#333B41"/>
<path d="M203.516 627.539H200.477V626.312H203.516C204.104 626.312 204.581 626.219 204.945 626.031C205.31 625.844 205.576 625.583 205.742 625.25C205.914 624.917 206 624.536 206 624.109C206 623.719 205.914 623.352 205.742 623.008C205.576 622.664 205.31 622.388 204.945 622.18C204.581 621.966 204.104 621.859 203.516 621.859H200.828V632H199.32V620.625H203.516C204.375 620.625 205.102 620.773 205.695 621.07C206.289 621.367 206.74 621.779 207.047 622.305C207.354 622.826 207.508 623.422 207.508 624.094C207.508 624.823 207.354 625.445 207.047 625.961C206.74 626.477 206.289 626.87 205.695 627.141C205.102 627.406 204.375 627.539 203.516 627.539ZM214.086 630.555V626.203C214.086 625.87 214.018 625.581 213.883 625.336C213.753 625.086 213.555 624.893 213.289 624.758C213.023 624.622 212.695 624.555 212.305 624.555C211.94 624.555 211.62 624.617 211.344 624.742C211.073 624.867 210.859 625.031 210.703 625.234C210.552 625.438 210.477 625.656 210.477 625.891H209.031C209.031 625.589 209.109 625.289 209.266 624.992C209.422 624.695 209.646 624.427 209.938 624.188C210.234 623.943 210.589 623.75 211 623.609C211.417 623.464 211.88 623.391 212.391 623.391C213.005 623.391 213.547 623.495 214.016 623.703C214.49 623.911 214.859 624.227 215.125 624.648C215.396 625.065 215.531 625.589 215.531 626.219V630.156C215.531 630.438 215.555 630.737 215.602 631.055C215.654 631.372 215.729 631.646 215.828 631.875V632H214.32C214.247 631.833 214.19 631.612 214.148 631.336C214.107 631.055 214.086 630.794 214.086 630.555ZM214.336 626.875L214.352 627.891H212.891C212.479 627.891 212.112 627.924 211.789 627.992C211.466 628.055 211.195 628.151 210.977 628.281C210.758 628.411 210.591 628.576 210.477 628.773C210.362 628.966 210.305 629.193 210.305 629.453C210.305 629.719 210.365 629.961 210.484 630.18C210.604 630.398 210.784 630.573 211.023 630.703C211.268 630.828 211.568 630.891 211.922 630.891C212.365 630.891 212.755 630.797 213.094 630.609C213.432 630.422 213.701 630.193 213.898 629.922C214.102 629.651 214.211 629.388 214.227 629.133L214.844 629.828C214.807 630.047 214.708 630.289 214.547 630.555C214.385 630.82 214.169 631.076 213.898 631.32C213.633 631.56 213.315 631.76 212.945 631.922C212.581 632.078 212.169 632.156 211.711 632.156C211.138 632.156 210.635 632.044 210.203 631.82C209.776 631.596 209.443 631.297 209.203 630.922C208.969 630.542 208.852 630.117 208.852 629.648C208.852 629.195 208.94 628.797 209.117 628.453C209.294 628.104 209.549 627.815 209.883 627.586C210.216 627.352 210.617 627.174 211.086 627.055C211.555 626.935 212.078 626.875 212.656 626.875H214.336ZM220.055 631.125L222.406 623.547H223.953L220.562 633.305C220.484 633.513 220.38 633.737 220.25 633.977C220.125 634.221 219.964 634.453 219.766 634.672C219.568 634.891 219.328 635.068 219.047 635.203C218.771 635.344 218.44 635.414 218.055 635.414C217.94 635.414 217.794 635.398 217.617 635.367C217.44 635.336 217.315 635.31 217.242 635.289L217.234 634.117C217.276 634.122 217.341 634.128 217.43 634.133C217.523 634.143 217.589 634.148 217.625 634.148C217.953 634.148 218.232 634.104 218.461 634.016C218.69 633.932 218.883 633.789 219.039 633.586C219.201 633.388 219.339 633.115 219.453 632.766L220.055 631.125ZM218.328 623.547L220.523 630.109L220.898 631.633L219.859 632.164L216.75 623.547H218.328ZM231.367 630.5L233.539 623.547H234.492L234.305 624.93L232.094 632H231.164L231.367 630.5ZM229.906 623.547L231.758 630.578L231.891 632H230.914L228.461 623.547H229.906ZM236.57 630.523L238.336 623.547H239.773L237.32 632H236.352L236.57 630.523ZM234.703 623.547L236.828 630.383L237.07 632H236.148L233.875 624.914L233.688 623.547H234.703ZM242.828 623.547V632H241.375V623.547H242.828ZM241.266 621.305C241.266 621.07 241.336 620.872 241.477 620.711C241.622 620.549 241.836 620.469 242.117 620.469C242.393 620.469 242.604 620.549 242.75 620.711C242.901 620.872 242.977 621.07 242.977 621.305C242.977 621.529 242.901 621.721 242.75 621.883C242.604 622.039 242.393 622.117 242.117 622.117C241.836 622.117 241.622 622.039 241.477 621.883C241.336 621.721 241.266 621.529 241.266 621.305ZM248.688 623.547V624.656H244.117V623.547H248.688ZM245.664 621.492H247.109V629.906C247.109 630.193 247.154 630.409 247.242 630.555C247.331 630.701 247.445 630.797 247.586 630.844C247.727 630.891 247.878 630.914 248.039 630.914C248.159 630.914 248.284 630.904 248.414 630.883C248.549 630.857 248.651 630.836 248.719 630.82L248.727 632C248.612 632.036 248.461 632.07 248.273 632.102C248.091 632.138 247.87 632.156 247.609 632.156C247.255 632.156 246.93 632.086 246.633 631.945C246.336 631.805 246.099 631.57 245.922 631.242C245.75 630.909 245.664 630.461 245.664 629.898V621.492ZM251.828 620V632H250.383V620H251.828ZM251.484 627.453L250.883 627.43C250.888 626.852 250.974 626.318 251.141 625.828C251.307 625.333 251.542 624.904 251.844 624.539C252.146 624.174 252.505 623.893 252.922 623.695C253.344 623.492 253.81 623.391 254.32 623.391C254.737 623.391 255.112 623.448 255.445 623.562C255.779 623.672 256.062 623.849 256.297 624.094C256.536 624.339 256.719 624.656 256.844 625.047C256.969 625.432 257.031 625.904 257.031 626.461V632H255.578V626.445C255.578 626.003 255.513 625.648 255.383 625.383C255.253 625.112 255.062 624.917 254.812 624.797C254.562 624.672 254.255 624.609 253.891 624.609C253.531 624.609 253.203 624.685 252.906 624.836C252.615 624.987 252.362 625.195 252.148 625.461C251.94 625.727 251.776 626.031 251.656 626.375C251.542 626.714 251.484 627.073 251.484 627.453ZM266.547 630.969C266.891 630.969 267.208 630.898 267.5 630.758C267.792 630.617 268.031 630.424 268.219 630.18C268.406 629.93 268.513 629.646 268.539 629.328H269.914C269.888 629.828 269.719 630.294 269.406 630.727C269.099 631.154 268.695 631.5 268.195 631.766C267.695 632.026 267.146 632.156 266.547 632.156C265.911 632.156 265.357 632.044 264.883 631.82C264.414 631.596 264.023 631.289 263.711 630.898C263.404 630.508 263.172 630.06 263.016 629.555C262.865 629.044 262.789 628.505 262.789 627.938V627.609C262.789 627.042 262.865 626.505 263.016 626C263.172 625.49 263.404 625.039 263.711 624.648C264.023 624.258 264.414 623.951 264.883 623.727C265.357 623.503 265.911 623.391 266.547 623.391C267.208 623.391 267.786 623.526 268.281 623.797C268.776 624.062 269.164 624.427 269.445 624.891C269.732 625.349 269.888 625.87 269.914 626.453H268.539C268.513 626.104 268.414 625.789 268.242 625.508C268.076 625.227 267.846 625.003 267.555 624.836C267.268 624.664 266.932 624.578 266.547 624.578C266.104 624.578 265.732 624.667 265.43 624.844C265.133 625.016 264.896 625.25 264.719 625.547C264.547 625.839 264.422 626.164 264.344 626.523C264.271 626.878 264.234 627.24 264.234 627.609V627.938C264.234 628.307 264.271 628.672 264.344 629.031C264.417 629.391 264.539 629.716 264.711 630.008C264.888 630.299 265.125 630.534 265.422 630.711C265.724 630.883 266.099 630.969 266.547 630.969ZM276.523 630.555V626.203C276.523 625.87 276.456 625.581 276.32 625.336C276.19 625.086 275.992 624.893 275.727 624.758C275.461 624.622 275.133 624.555 274.742 624.555C274.378 624.555 274.057 624.617 273.781 624.742C273.51 624.867 273.297 625.031 273.141 625.234C272.99 625.438 272.914 625.656 272.914 625.891H271.469C271.469 625.589 271.547 625.289 271.703 624.992C271.859 624.695 272.083 624.427 272.375 624.188C272.672 623.943 273.026 623.75 273.438 623.609C273.854 623.464 274.318 623.391 274.828 623.391C275.443 623.391 275.984 623.495 276.453 623.703C276.927 623.911 277.297 624.227 277.562 624.648C277.833 625.065 277.969 625.589 277.969 626.219V630.156C277.969 630.438 277.992 630.737 278.039 631.055C278.091 631.372 278.167 631.646 278.266 631.875V632H276.758C276.685 631.833 276.628 631.612 276.586 631.336C276.544 631.055 276.523 630.794 276.523 630.555ZM276.773 626.875L276.789 627.891H275.328C274.917 627.891 274.549 627.924 274.227 627.992C273.904 628.055 273.633 628.151 273.414 628.281C273.195 628.411 273.029 628.576 272.914 628.773C272.799 628.966 272.742 629.193 272.742 629.453C272.742 629.719 272.802 629.961 272.922 630.18C273.042 630.398 273.221 630.573 273.461 630.703C273.706 630.828 274.005 630.891 274.359 630.891C274.802 630.891 275.193 630.797 275.531 630.609C275.87 630.422 276.138 630.193 276.336 629.922C276.539 629.651 276.648 629.388 276.664 629.133L277.281 629.828C277.245 630.047 277.146 630.289 276.984 630.555C276.823 630.82 276.607 631.076 276.336 631.32C276.07 631.56 275.753 631.76 275.383 631.922C275.018 632.078 274.607 632.156 274.148 632.156C273.576 632.156 273.073 632.044 272.641 631.82C272.214 631.596 271.88 631.297 271.641 630.922C271.406 630.542 271.289 630.117 271.289 629.648C271.289 629.195 271.378 628.797 271.555 628.453C271.732 628.104 271.987 627.815 272.32 627.586C272.654 627.352 273.055 627.174 273.523 627.055C273.992 626.935 274.516 626.875 275.094 626.875H276.773ZM281.688 624.875V632H280.242V623.547H281.648L281.688 624.875ZM284.328 623.5L284.32 624.844C284.201 624.818 284.086 624.802 283.977 624.797C283.872 624.786 283.753 624.781 283.617 624.781C283.284 624.781 282.99 624.833 282.734 624.938C282.479 625.042 282.263 625.188 282.086 625.375C281.909 625.562 281.768 625.786 281.664 626.047C281.565 626.302 281.5 626.583 281.469 626.891L281.062 627.125C281.062 626.615 281.112 626.135 281.211 625.688C281.315 625.24 281.474 624.844 281.688 624.5C281.901 624.151 282.172 623.88 282.5 623.688C282.833 623.49 283.229 623.391 283.688 623.391C283.792 623.391 283.911 623.404 284.047 623.43C284.182 623.451 284.276 623.474 284.328 623.5ZM290.836 630.359V620H292.289V632H290.961L290.836 630.359ZM285.148 627.867V627.703C285.148 627.057 285.227 626.471 285.383 625.945C285.544 625.414 285.771 624.958 286.062 624.578C286.359 624.198 286.711 623.906 287.117 623.703C287.529 623.495 287.987 623.391 288.492 623.391C289.023 623.391 289.487 623.484 289.883 623.672C290.284 623.854 290.622 624.122 290.898 624.477C291.18 624.826 291.401 625.247 291.562 625.742C291.724 626.237 291.836 626.797 291.898 627.422V628.141C291.841 628.76 291.729 629.318 291.562 629.812C291.401 630.307 291.18 630.729 290.898 631.078C290.622 631.427 290.284 631.695 289.883 631.883C289.482 632.065 289.013 632.156 288.477 632.156C287.982 632.156 287.529 632.049 287.117 631.836C286.711 631.622 286.359 631.323 286.062 630.938C285.771 630.552 285.544 630.099 285.383 629.578C285.227 629.052 285.148 628.482 285.148 627.867ZM286.602 627.703V627.867C286.602 628.289 286.643 628.685 286.727 629.055C286.815 629.424 286.951 629.75 287.133 630.031C287.315 630.312 287.547 630.534 287.828 630.695C288.109 630.852 288.445 630.93 288.836 630.93C289.315 630.93 289.708 630.828 290.016 630.625C290.328 630.422 290.578 630.154 290.766 629.82C290.953 629.487 291.099 629.125 291.203 628.734V626.852C291.141 626.565 291.049 626.289 290.93 626.023C290.815 625.753 290.664 625.513 290.477 625.305C290.294 625.091 290.068 624.922 289.797 624.797C289.531 624.672 289.216 624.609 288.852 624.609C288.456 624.609 288.115 624.693 287.828 624.859C287.547 625.021 287.315 625.245 287.133 625.531C286.951 625.812 286.815 626.141 286.727 626.516C286.643 626.885 286.602 627.281 286.602 627.703Z" fill="#333B41"/>
</g>
<g clip-path="url(#clip2_0_1)">
<rect x="496.5" y="418.5" width="167" height="167" rx="4.5" fill="white" stroke="url(#paint4_linear_0_1)"/>
<path d="M501.516 627.539H498.477V626.312H501.516C502.104 626.312 502.581 626.219 502.945 626.031C503.31 625.844 503.576 625.583 503.742 625.25C503.914 624.917 504 624.536 504 624.109C504 623.719 503.914 623.352 503.742 623.008C503.576 622.664 503.31 622.388 502.945 622.18C502.581 621.966 502.104 621.859 501.516 621.859H498.828V632H497.32V620.625H501.516C502.375 620.625 503.102 620.773 503.695 621.07C504.289 621.367 504.74 621.779 505.047 622.305C505.354 622.826 505.508 623.422 505.508 624.094C505.508 624.823 505.354 625.445 505.047 625.961C504.74 626.477 504.289 626.87 503.695 627.141C503.102 627.406 502.375 627.539 501.516 627.539ZM512.086 630.555V626.203C512.086 625.87 512.018 625.581 511.883 625.336C511.753 625.086 511.555 624.893 511.289 624.758C511.023 624.622 510.695 624.555 510.305 624.555C509.94 624.555 509.62 624.617 509.344 624.742C509.073 624.867 508.859 625.031 508.703 625.234C508.552 625.438 508.477 625.656 508.477 625.891H507.031C507.031 625.589 507.109 625.289 507.266 624.992C507.422 624.695 507.646 624.427 507.938 624.188C508.234 623.943 508.589 623.75 509 623.609C509.417 623.464 509.88 623.391 510.391 623.391C511.005 623.391 511.547 623.495 512.016 623.703C512.49 623.911 512.859 624.227 513.125 624.648C513.396 625.065 513.531 625.589 513.531 626.219V630.156C513.531 630.438 513.555 630.737 513.602 631.055C513.654 631.372 513.729 631.646 513.828 631.875V632H512.32C512.247 631.833 512.19 631.612 512.148 631.336C512.107 631.055 512.086 630.794 512.086 630.555ZM512.336 626.875L512.352 627.891H510.891C510.479 627.891 510.112 627.924 509.789 627.992C509.466 628.055 509.195 628.151 508.977 628.281C508.758 628.411 508.591 628.576 508.477 628.773C508.362 628.966 508.305 629.193 508.305 629.453C508.305 629.719 508.365 629.961 508.484 630.18C508.604 630.398 508.784 630.573 509.023 630.703C509.268 630.828 509.568 630.891 509.922 630.891C510.365 630.891 510.755 630.797 511.094 630.609C511.432 630.422 511.701 630.193 511.898 629.922C512.102 629.651 512.211 629.388 512.227 629.133L512.844 629.828C512.807 630.047 512.708 630.289 512.547 630.555C512.385 630.82 512.169 631.076 511.898 631.32C511.633 631.56 511.315 631.76 510.945 631.922C510.581 632.078 510.169 632.156 509.711 632.156C509.138 632.156 508.635 632.044 508.203 631.82C507.776 631.596 507.443 631.297 507.203 630.922C506.969 630.542 506.852 630.117 506.852 629.648C506.852 629.195 506.94 628.797 507.117 628.453C507.294 628.104 507.549 627.815 507.883 627.586C508.216 627.352 508.617 627.174 509.086 627.055C509.555 626.935 510.078 626.875 510.656 626.875H512.336ZM518.055 631.125L520.406 623.547H521.953L518.562 633.305C518.484 633.513 518.38 633.737 518.25 633.977C518.125 634.221 517.964 634.453 517.766 634.672C517.568 634.891 517.328 635.068 517.047 635.203C516.771 635.344 516.44 635.414 516.055 635.414C515.94 635.414 515.794 635.398 515.617 635.367C515.44 635.336 515.315 635.31 515.242 635.289L515.234 634.117C515.276 634.122 515.341 634.128 515.43 634.133C515.523 634.143 515.589 634.148 515.625 634.148C515.953 634.148 516.232 634.104 516.461 634.016C516.69 633.932 516.883 633.789 517.039 633.586C517.201 633.388 517.339 633.115 517.453 632.766L518.055 631.125ZM516.328 623.547L518.523 630.109L518.898 631.633L517.859 632.164L514.75 623.547H516.328ZM524.695 625.227V632H523.242V623.547H524.617L524.695 625.227ZM524.398 627.453L523.727 627.43C523.732 626.852 523.807 626.318 523.953 625.828C524.099 625.333 524.315 624.904 524.602 624.539C524.888 624.174 525.245 623.893 525.672 623.695C526.099 623.492 526.594 623.391 527.156 623.391C527.552 623.391 527.917 623.448 528.25 623.562C528.583 623.672 528.872 623.846 529.117 624.086C529.362 624.326 529.552 624.633 529.688 625.008C529.823 625.383 529.891 625.836 529.891 626.367V632H528.445V626.438C528.445 625.995 528.37 625.641 528.219 625.375C528.073 625.109 527.865 624.917 527.594 624.797C527.323 624.672 527.005 624.609 526.641 624.609C526.214 624.609 525.857 624.685 525.57 624.836C525.284 624.987 525.055 625.195 524.883 625.461C524.711 625.727 524.586 626.031 524.508 626.375C524.435 626.714 524.398 627.073 524.398 627.453ZM529.875 626.656L528.906 626.953C528.911 626.49 528.987 626.044 529.133 625.617C529.284 625.19 529.5 624.81 529.781 624.477C530.068 624.143 530.419 623.88 530.836 623.688C531.253 623.49 531.729 623.391 532.266 623.391C532.719 623.391 533.12 623.451 533.469 623.57C533.823 623.69 534.12 623.875 534.359 624.125C534.604 624.37 534.789 624.685 534.914 625.07C535.039 625.456 535.102 625.914 535.102 626.445V632H533.648V626.43C533.648 625.956 533.573 625.589 533.422 625.328C533.276 625.062 533.068 624.878 532.797 624.773C532.531 624.664 532.214 624.609 531.844 624.609C531.526 624.609 531.245 624.664 531 624.773C530.755 624.883 530.549 625.034 530.383 625.227C530.216 625.414 530.089 625.63 530 625.875C529.917 626.12 529.875 626.38 529.875 626.656ZM540.797 632.156C540.208 632.156 539.674 632.057 539.195 631.859C538.721 631.656 538.312 631.372 537.969 631.008C537.63 630.643 537.37 630.211 537.188 629.711C537.005 629.211 536.914 628.664 536.914 628.07V627.742C536.914 627.055 537.016 626.443 537.219 625.906C537.422 625.365 537.698 624.906 538.047 624.531C538.396 624.156 538.792 623.872 539.234 623.68C539.677 623.487 540.135 623.391 540.609 623.391C541.214 623.391 541.734 623.495 542.172 623.703C542.615 623.911 542.977 624.203 543.258 624.578C543.539 624.948 543.747 625.385 543.883 625.891C544.018 626.391 544.086 626.938 544.086 627.531V628.18H537.773V627H542.641V626.891C542.62 626.516 542.542 626.151 542.406 625.797C542.276 625.443 542.068 625.151 541.781 624.922C541.495 624.693 541.104 624.578 540.609 624.578C540.281 624.578 539.979 624.648 539.703 624.789C539.427 624.924 539.19 625.128 538.992 625.398C538.794 625.669 538.641 626 538.531 626.391C538.422 626.781 538.367 627.232 538.367 627.742V628.07C538.367 628.471 538.422 628.849 538.531 629.203C538.646 629.552 538.81 629.859 539.023 630.125C539.242 630.391 539.505 630.599 539.812 630.75C540.125 630.901 540.479 630.977 540.875 630.977C541.385 630.977 541.818 630.872 542.172 630.664C542.526 630.456 542.836 630.177 543.102 629.828L543.977 630.523C543.794 630.799 543.562 631.062 543.281 631.312C543 631.562 542.654 631.766 542.242 631.922C541.836 632.078 541.354 632.156 540.797 632.156ZM547.219 625.352V632H545.773V623.547H547.141L547.219 625.352ZM546.875 627.453L546.273 627.43C546.279 626.852 546.365 626.318 546.531 625.828C546.698 625.333 546.932 624.904 547.234 624.539C547.536 624.174 547.896 623.893 548.312 623.695C548.734 623.492 549.201 623.391 549.711 623.391C550.128 623.391 550.503 623.448 550.836 623.562C551.169 623.672 551.453 623.849 551.688 624.094C551.927 624.339 552.109 624.656 552.234 625.047C552.359 625.432 552.422 625.904 552.422 626.461V632H550.969V626.445C550.969 626.003 550.904 625.648 550.773 625.383C550.643 625.112 550.453 624.917 550.203 624.797C549.953 624.672 549.646 624.609 549.281 624.609C548.922 624.609 548.594 624.685 548.297 624.836C548.005 624.987 547.753 625.195 547.539 625.461C547.331 625.727 547.167 626.031 547.047 626.375C546.932 626.714 546.875 627.073 546.875 627.453ZM558.156 623.547V624.656H553.586V623.547H558.156ZM555.133 621.492H556.578V629.906C556.578 630.193 556.622 630.409 556.711 630.555C556.799 630.701 556.914 630.797 557.055 630.844C557.195 630.891 557.346 630.914 557.508 630.914C557.628 630.914 557.753 630.904 557.883 630.883C558.018 630.857 558.12 630.836 558.188 630.82L558.195 632C558.081 632.036 557.93 632.07 557.742 632.102C557.56 632.138 557.339 632.156 557.078 632.156C556.724 632.156 556.398 632.086 556.102 631.945C555.805 631.805 555.568 631.57 555.391 631.242C555.219 630.909 555.133 630.461 555.133 629.898V621.492ZM569.297 623.547H570.609V631.82C570.609 632.565 570.458 633.201 570.156 633.727C569.854 634.253 569.432 634.651 568.891 634.922C568.354 635.198 567.734 635.336 567.031 635.336C566.74 635.336 566.396 635.289 566 635.195C565.609 635.107 565.224 634.953 564.844 634.734C564.469 634.521 564.154 634.232 563.898 633.867L564.656 633.008C565.01 633.435 565.38 633.732 565.766 633.898C566.156 634.065 566.542 634.148 566.922 634.148C567.38 634.148 567.776 634.062 568.109 633.891C568.443 633.719 568.701 633.464 568.883 633.125C569.07 632.792 569.164 632.38 569.164 631.891V625.406L569.297 623.547ZM563.477 627.867V627.703C563.477 627.057 563.552 626.471 563.703 625.945C563.859 625.414 564.081 624.958 564.367 624.578C564.659 624.198 565.01 623.906 565.422 623.703C565.833 623.495 566.297 623.391 566.812 623.391C567.344 623.391 567.807 623.484 568.203 623.672C568.604 623.854 568.943 624.122 569.219 624.477C569.5 624.826 569.721 625.247 569.883 625.742C570.044 626.237 570.156 626.797 570.219 627.422V628.141C570.161 628.76 570.049 629.318 569.883 629.812C569.721 630.307 569.5 630.729 569.219 631.078C568.943 631.427 568.604 631.695 568.203 631.883C567.802 632.065 567.333 632.156 566.797 632.156C566.292 632.156 565.833 632.049 565.422 631.836C565.016 631.622 564.667 631.323 564.375 630.938C564.083 630.552 563.859 630.099 563.703 629.578C563.552 629.052 563.477 628.482 563.477 627.867ZM564.922 627.703V627.867C564.922 628.289 564.964 628.685 565.047 629.055C565.135 629.424 565.268 629.75 565.445 630.031C565.628 630.312 565.859 630.534 566.141 630.695C566.422 630.852 566.758 630.93 567.148 630.93C567.628 630.93 568.023 630.828 568.336 630.625C568.648 630.422 568.896 630.154 569.078 629.82C569.266 629.487 569.411 629.125 569.516 628.734V626.852C569.458 626.565 569.37 626.289 569.25 626.023C569.135 625.753 568.984 625.513 568.797 625.305C568.615 625.091 568.388 624.922 568.117 624.797C567.846 624.672 567.529 624.609 567.164 624.609C566.768 624.609 566.427 624.693 566.141 624.859C565.859 625.021 565.628 625.245 565.445 625.531C565.268 625.812 565.135 626.141 565.047 626.516C564.964 626.885 564.922 627.281 564.922 627.703ZM572.422 627.867V627.688C572.422 627.078 572.51 626.513 572.688 625.992C572.865 625.466 573.12 625.01 573.453 624.625C573.786 624.234 574.19 623.932 574.664 623.719C575.138 623.5 575.669 623.391 576.258 623.391C576.852 623.391 577.385 623.5 577.859 623.719C578.339 623.932 578.745 624.234 579.078 624.625C579.417 625.01 579.674 625.466 579.852 625.992C580.029 626.513 580.117 627.078 580.117 627.688V627.867C580.117 628.477 580.029 629.042 579.852 629.562C579.674 630.083 579.417 630.539 579.078 630.93C578.745 631.315 578.341 631.617 577.867 631.836C577.398 632.049 576.867 632.156 576.273 632.156C575.68 632.156 575.146 632.049 574.672 631.836C574.198 631.617 573.792 631.315 573.453 630.93C573.12 630.539 572.865 630.083 572.688 629.562C572.51 629.042 572.422 628.477 572.422 627.867ZM573.867 627.688V627.867C573.867 628.289 573.917 628.688 574.016 629.062C574.115 629.432 574.263 629.76 574.461 630.047C574.664 630.333 574.917 630.56 575.219 630.727C575.521 630.888 575.872 630.969 576.273 630.969C576.669 630.969 577.016 630.888 577.312 630.727C577.615 630.56 577.865 630.333 578.062 630.047C578.26 629.76 578.409 629.432 578.508 629.062C578.612 628.688 578.664 628.289 578.664 627.867V627.688C578.664 627.271 578.612 626.878 578.508 626.508C578.409 626.133 578.258 625.802 578.055 625.516C577.857 625.224 577.607 624.995 577.305 624.828C577.008 624.661 576.659 624.578 576.258 624.578C575.862 624.578 575.513 624.661 575.211 624.828C574.914 624.995 574.664 625.224 574.461 625.516C574.263 625.802 574.115 626.133 574.016 626.508C573.917 626.878 573.867 627.271 573.867 627.688ZM585.438 632.156C584.849 632.156 584.315 632.057 583.836 631.859C583.362 631.656 582.953 631.372 582.609 631.008C582.271 630.643 582.01 630.211 581.828 629.711C581.646 629.211 581.555 628.664 581.555 628.07V627.742C581.555 627.055 581.656 626.443 581.859 625.906C582.062 625.365 582.339 624.906 582.688 624.531C583.036 624.156 583.432 623.872 583.875 623.68C584.318 623.487 584.776 623.391 585.25 623.391C585.854 623.391 586.375 623.495 586.812 623.703C587.255 623.911 587.617 624.203 587.898 624.578C588.18 624.948 588.388 625.385 588.523 625.891C588.659 626.391 588.727 626.938 588.727 627.531V628.18H582.414V627H587.281V626.891C587.26 626.516 587.182 626.151 587.047 625.797C586.917 625.443 586.708 625.151 586.422 624.922C586.135 624.693 585.745 624.578 585.25 624.578C584.922 624.578 584.62 624.648 584.344 624.789C584.068 624.924 583.831 625.128 583.633 625.398C583.435 625.669 583.281 626 583.172 626.391C583.062 626.781 583.008 627.232 583.008 627.742V628.07C583.008 628.471 583.062 628.849 583.172 629.203C583.286 629.552 583.451 629.859 583.664 630.125C583.883 630.391 584.146 630.599 584.453 630.75C584.766 630.901 585.12 630.977 585.516 630.977C586.026 630.977 586.458 630.872 586.812 630.664C587.167 630.456 587.477 630.177 587.742 629.828L588.617 630.523C588.435 630.799 588.203 631.062 587.922 631.312C587.641 631.562 587.294 631.766 586.883 631.922C586.477 632.078 585.995 632.156 585.438 632.156ZM595.336 629.758C595.336 629.549 595.289 629.357 595.195 629.18C595.107 628.997 594.922 628.833 594.641 628.688C594.365 628.536 593.948 628.406 593.391 628.297C592.922 628.198 592.497 628.081 592.117 627.945C591.742 627.81 591.422 627.646 591.156 627.453C590.896 627.26 590.695 627.034 590.555 626.773C590.414 626.513 590.344 626.208 590.344 625.859C590.344 625.526 590.417 625.211 590.562 624.914C590.714 624.617 590.924 624.354 591.195 624.125C591.471 623.896 591.802 623.716 592.188 623.586C592.573 623.456 593.003 623.391 593.477 623.391C594.154 623.391 594.732 623.51 595.211 623.75C595.69 623.99 596.057 624.31 596.312 624.711C596.568 625.107 596.695 625.547 596.695 626.031H595.25C595.25 625.797 595.18 625.57 595.039 625.352C594.904 625.128 594.703 624.943 594.438 624.797C594.177 624.651 593.857 624.578 593.477 624.578C593.076 624.578 592.75 624.641 592.5 624.766C592.255 624.885 592.076 625.039 591.961 625.227C591.852 625.414 591.797 625.612 591.797 625.82C591.797 625.977 591.823 626.117 591.875 626.242C591.932 626.362 592.031 626.474 592.172 626.578C592.312 626.677 592.51 626.771 592.766 626.859C593.021 626.948 593.346 627.036 593.742 627.125C594.435 627.281 595.005 627.469 595.453 627.688C595.901 627.906 596.234 628.174 596.453 628.492C596.672 628.81 596.781 629.195 596.781 629.648C596.781 630.018 596.703 630.357 596.547 630.664C596.396 630.971 596.174 631.237 595.883 631.461C595.596 631.68 595.253 631.852 594.852 631.977C594.456 632.096 594.01 632.156 593.516 632.156C592.771 632.156 592.141 632.023 591.625 631.758C591.109 631.492 590.719 631.148 590.453 630.727C590.188 630.305 590.055 629.859 590.055 629.391H591.508C591.529 629.786 591.643 630.102 591.852 630.336C592.06 630.565 592.315 630.729 592.617 630.828C592.919 630.922 593.219 630.969 593.516 630.969C593.911 630.969 594.242 630.917 594.508 630.812C594.779 630.708 594.984 630.565 595.125 630.383C595.266 630.201 595.336 629.992 595.336 629.758ZM606.188 623.547V624.656H601.617V623.547H606.188ZM603.164 621.492H604.609V629.906C604.609 630.193 604.654 630.409 604.742 630.555C604.831 630.701 604.945 630.797 605.086 630.844C605.227 630.891 605.378 630.914 605.539 630.914C605.659 630.914 605.784 630.904 605.914 630.883C606.049 630.857 606.151 630.836 606.219 630.82L606.227 632C606.112 632.036 605.961 632.07 605.773 632.102C605.591 632.138 605.37 632.156 605.109 632.156C604.755 632.156 604.43 632.086 604.133 631.945C603.836 631.805 603.599 631.57 603.422 631.242C603.25 630.909 603.164 630.461 603.164 629.898V621.492ZM607.344 627.867V627.688C607.344 627.078 607.432 626.513 607.609 625.992C607.786 625.466 608.042 625.01 608.375 624.625C608.708 624.234 609.112 623.932 609.586 623.719C610.06 623.5 610.591 623.391 611.18 623.391C611.773 623.391 612.307 623.5 612.781 623.719C613.26 623.932 613.667 624.234 614 624.625C614.339 625.01 614.596 625.466 614.773 625.992C614.951 626.513 615.039 627.078 615.039 627.688V627.867C615.039 628.477 614.951 629.042 614.773 629.562C614.596 630.083 614.339 630.539 614 630.93C613.667 631.315 613.263 631.617 612.789 631.836C612.32 632.049 611.789 632.156 611.195 632.156C610.602 632.156 610.068 632.049 609.594 631.836C609.12 631.617 608.714 631.315 608.375 630.93C608.042 630.539 607.786 630.083 607.609 629.562C607.432 629.042 607.344 628.477 607.344 627.867ZM608.789 627.688V627.867C608.789 628.289 608.839 628.688 608.938 629.062C609.036 629.432 609.185 629.76 609.383 630.047C609.586 630.333 609.839 630.56 610.141 630.727C610.443 630.888 610.794 630.969 611.195 630.969C611.591 630.969 611.938 630.888 612.234 630.727C612.536 630.56 612.786 630.333 612.984 630.047C613.182 629.76 613.331 629.432 613.43 629.062C613.534 628.688 613.586 628.289 613.586 627.867V627.688C613.586 627.271 613.534 626.878 613.43 626.508C613.331 626.133 613.18 625.802 612.977 625.516C612.779 625.224 612.529 624.995 612.227 624.828C611.93 624.661 611.581 624.578 611.18 624.578C610.784 624.578 610.435 624.661 610.133 624.828C609.836 624.995 609.586 625.224 609.383 625.516C609.185 625.802 609.036 626.133 608.938 626.508C608.839 626.878 608.789 627.271 608.789 627.688ZM624.359 623.547V624.656H619.789V623.547H624.359ZM621.336 621.492H622.781V629.906C622.781 630.193 622.826 630.409 622.914 630.555C623.003 630.701 623.117 630.797 623.258 630.844C623.398 630.891 623.549 630.914 623.711 630.914C623.831 630.914 623.956 630.904 624.086 630.883C624.221 630.857 624.323 630.836 624.391 630.82L624.398 632C624.284 632.036 624.133 632.07 623.945 632.102C623.763 632.138 623.542 632.156 623.281 632.156C622.927 632.156 622.602 632.086 622.305 631.945C622.008 631.805 621.771 631.57 621.594 631.242C621.422 630.909 621.336 630.461 621.336 629.898V621.492ZM627.5 620V632H626.055V620H627.5ZM627.156 627.453L626.555 627.43C626.56 626.852 626.646 626.318 626.812 625.828C626.979 625.333 627.214 624.904 627.516 624.539C627.818 624.174 628.177 623.893 628.594 623.695C629.016 623.492 629.482 623.391 629.992 623.391C630.409 623.391 630.784 623.448 631.117 623.562C631.451 623.672 631.734 623.849 631.969 624.094C632.208 624.339 632.391 624.656 632.516 625.047C632.641 625.432 632.703 625.904 632.703 626.461V632H631.25V626.445C631.25 626.003 631.185 625.648 631.055 625.383C630.924 625.112 630.734 624.917 630.484 624.797C630.234 624.672 629.927 624.609 629.562 624.609C629.203 624.609 628.875 624.685 628.578 624.836C628.286 624.987 628.034 625.195 627.82 625.461C627.612 625.727 627.448 626.031 627.328 626.375C627.214 626.714 627.156 627.073 627.156 627.453ZM638.375 632.156C637.786 632.156 637.253 632.057 636.773 631.859C636.299 631.656 635.891 631.372 635.547 631.008C635.208 630.643 634.948 630.211 634.766 629.711C634.583 629.211 634.492 628.664 634.492 628.07V627.742C634.492 627.055 634.594 626.443 634.797 625.906C635 625.365 635.276 624.906 635.625 624.531C635.974 624.156 636.37 623.872 636.812 623.68C637.255 623.487 637.714 623.391 638.188 623.391C638.792 623.391 639.312 623.495 639.75 623.703C640.193 623.911 640.555 624.203 640.836 624.578C641.117 624.948 641.326 625.385 641.461 625.891C641.596 626.391 641.664 626.938 641.664 627.531V628.18H635.352V627H640.219V626.891C640.198 626.516 640.12 626.151 639.984 625.797C639.854 625.443 639.646 625.151 639.359 624.922C639.073 624.693 638.682 624.578 638.188 624.578C637.859 624.578 637.557 624.648 637.281 624.789C637.005 624.924 636.768 625.128 636.57 625.398C636.372 625.669 636.219 626 636.109 626.391C636 626.781 635.945 627.232 635.945 627.742V628.07C635.945 628.471 636 628.849 636.109 629.203C636.224 629.552 636.388 629.859 636.602 630.125C636.82 630.391 637.083 630.599 637.391 630.75C637.703 630.901 638.057 630.977 638.453 630.977C638.964 630.977 639.396 630.872 639.75 630.664C640.104 630.456 640.414 630.177 640.68 629.828L641.555 630.523C641.372 630.799 641.141 631.062 640.859 631.312C640.578 631.562 640.232 631.766 639.82 631.922C639.414 632.078 638.932 632.156 638.375 632.156ZM503.398 652.812V654H497.25V652.812H503.398ZM503.172 646.57L497.578 654H496.695V652.938L502.25 645.547H503.172V646.57ZM502.531 645.547V646.742H496.758V645.547H502.531ZM504.531 649.867V649.688C504.531 649.078 504.62 648.513 504.797 647.992C504.974 647.466 505.229 647.01 505.562 646.625C505.896 646.234 506.299 645.932 506.773 645.719C507.247 645.5 507.779 645.391 508.367 645.391C508.961 645.391 509.495 645.5 509.969 645.719C510.448 645.932 510.854 646.234 511.188 646.625C511.526 647.01 511.784 647.466 511.961 647.992C512.138 648.513 512.227 649.078 512.227 649.688V649.867C512.227 650.477 512.138 651.042 511.961 651.562C511.784 652.083 511.526 652.539 511.188 652.93C510.854 653.315 510.451 653.617 509.977 653.836C509.508 654.049 508.977 654.156 508.383 654.156C507.789 654.156 507.255 654.049 506.781 653.836C506.307 653.617 505.901 653.315 505.562 652.93C505.229 652.539 504.974 652.083 504.797 651.562C504.62 651.042 504.531 650.477 504.531 649.867ZM505.977 649.688V649.867C505.977 650.289 506.026 650.688 506.125 651.062C506.224 651.432 506.372 651.76 506.57 652.047C506.773 652.333 507.026 652.56 507.328 652.727C507.63 652.888 507.982 652.969 508.383 652.969C508.779 652.969 509.125 652.888 509.422 652.727C509.724 652.56 509.974 652.333 510.172 652.047C510.37 651.76 510.518 651.432 510.617 651.062C510.721 650.688 510.773 650.289 510.773 649.867V649.688C510.773 649.271 510.721 648.878 510.617 648.508C510.518 648.133 510.367 647.802 510.164 647.516C509.966 647.224 509.716 646.995 509.414 646.828C509.117 646.661 508.768 646.578 508.367 646.578C507.971 646.578 507.622 646.661 507.32 646.828C507.023 646.995 506.773 647.224 506.57 647.516C506.372 647.802 506.224 648.133 506.125 648.508C506.026 648.878 505.977 649.271 505.977 649.688ZM513.656 649.867V649.688C513.656 649.078 513.745 648.513 513.922 647.992C514.099 647.466 514.354 647.01 514.688 646.625C515.021 646.234 515.424 645.932 515.898 645.719C516.372 645.5 516.904 645.391 517.492 645.391C518.086 645.391 518.62 645.5 519.094 645.719C519.573 645.932 519.979 646.234 520.312 646.625C520.651 647.01 520.909 647.466 521.086 647.992C521.263 648.513 521.352 649.078 521.352 649.688V649.867C521.352 650.477 521.263 651.042 521.086 651.562C520.909 652.083 520.651 652.539 520.312 652.93C519.979 653.315 519.576 653.617 519.102 653.836C518.633 654.049 518.102 654.156 517.508 654.156C516.914 654.156 516.38 654.049 515.906 653.836C515.432 653.617 515.026 653.315 514.688 652.93C514.354 652.539 514.099 652.083 513.922 651.562C513.745 651.042 513.656 650.477 513.656 649.867ZM515.102 649.688V649.867C515.102 650.289 515.151 650.688 515.25 651.062C515.349 651.432 515.497 651.76 515.695 652.047C515.898 652.333 516.151 652.56 516.453 652.727C516.755 652.888 517.107 652.969 517.508 652.969C517.904 652.969 518.25 652.888 518.547 652.727C518.849 652.56 519.099 652.333 519.297 652.047C519.495 651.76 519.643 651.432 519.742 651.062C519.846 650.688 519.898 650.289 519.898 649.867V649.688C519.898 649.271 519.846 648.878 519.742 648.508C519.643 648.133 519.492 647.802 519.289 647.516C519.091 647.224 518.841 646.995 518.539 646.828C518.242 646.661 517.893 646.578 517.492 646.578C517.096 646.578 516.747 646.661 516.445 646.828C516.148 646.995 515.898 647.224 515.695 647.516C515.497 647.802 515.349 648.133 515.25 648.508C515.151 648.878 515.102 649.271 515.102 649.688Z" fill="#333B41"/>
<path d="M575.974 461.264C575.624 460.936 575.275 460.696 574.947 460.521C574.62 460.368 574.248 460.281 573.833 460.281C573.353 460.281 573.003 460.39 572.763 460.587C572.523 460.783 572.392 461.111 572.392 461.548C572.392 461.854 572.523 462.138 572.785 462.334C573.047 462.553 573.353 462.749 573.746 462.946C574.139 463.142 574.554 463.339 574.991 463.557C575.428 463.776 575.843 464.016 576.236 464.322C576.629 464.628 576.935 464.977 577.197 465.414C577.459 465.851 577.59 466.375 577.59 466.987C577.59 467.926 577.328 468.734 576.826 469.411C576.323 470.088 575.537 470.525 574.532 470.765V472.818H572.632V470.853C572.064 470.787 571.452 470.634 570.819 470.372C570.186 470.11 569.64 469.782 569.181 469.367L570.448 467.423C570.95 467.795 571.431 468.079 571.867 468.275C572.326 468.472 572.785 468.559 573.244 468.559C573.79 468.559 574.205 468.45 574.445 468.232C574.707 468.013 574.838 467.664 574.838 467.205C574.838 466.856 574.707 466.572 574.445 466.331C574.183 466.091 573.877 465.873 573.484 465.654C573.091 465.436 572.676 465.217 572.239 464.999C571.802 464.781 571.387 464.518 570.994 464.213C570.601 463.907 570.295 463.557 570.033 463.142C569.771 462.727 569.64 462.247 569.64 461.657C569.64 460.696 569.902 459.888 570.426 459.254C570.95 458.621 571.693 458.206 572.61 458.031V456H574.51V457.988C575.144 458.075 575.69 458.272 576.17 458.556C576.651 458.839 577.066 459.189 577.459 459.604L575.974 461.264Z" fill="#333B41"/>
<path fill-rule="evenodd" clip-rule="evenodd" d="M623 532L619.406 529.789L611.389 544.164L615.26 546.099L623 532Z" fill="#333B41"/>
<path fill-rule="evenodd" clip-rule="evenodd" d="M617.471 529.236C608.072 518.454 599.778 521.219 588.721 528.406C579.045 534.764 571.858 530.341 564.671 533.382C563.012 534.211 560.524 536.147 562.735 538.082C563.841 538.911 568.264 539.74 569.646 539.464C577.11 537.805 579.322 541.123 590.656 538.911C587.339 541.399 576.557 539.74 569.923 540.57C564.671 541.675 556.101 537.529 563.012 532.829C559.971 531.447 557.207 530.618 553.889 530.341C550.572 527.853 545.32 524.813 542.555 523.707C540.344 522.325 534.815 522.877 538.409 526.471C542.002 529.788 551.678 537.252 553.613 538.358C561.353 543.058 568.541 546.375 576.005 550.522C576.005 550.522 578.493 551.904 583.468 549.969C587.062 548.31 603.096 539.464 606.966 540.846C609.177 541.675 610.283 542.228 610.283 542.228L617.471 529.236Z" stroke="#333B41" stroke-width="1.5"/>
<path fill-rule="evenodd" clip-rule="evenodd" d="M570.753 528.406C571.306 527.3 571.859 526.471 572.688 526.195C573.517 525.918 573.794 526.471 574.347 527.024C574.899 527.853 575.176 528.13 576.005 528.683C576.282 528.959 576.834 528.959 577.111 528.959L576.558 528.683C575.729 528.13 575.176 527.577 575.452 526.471C575.452 526.195 575.176 525.642 575.729 525.642C576.282 525.918 577.111 526.471 577.94 526.471C577.94 526.471 578.77 526.747 578.493 526.471C578.493 526.195 577.94 525.918 577.664 525.642C576.005 524.259 576.005 523.983 576.005 522.048C576.282 519.284 575.176 517.072 573.241 515.137C568.818 510.714 570.753 504.632 574.07 498.827C577.111 493.575 579.875 492.745 576.834 486.387C575.729 483.623 573.794 480.858 573.517 479.2C573.517 478.647 573.517 478.923 573.517 479.2C573.241 480.858 574.347 483.346 575.452 485.834C577.94 491.363 577.387 491.916 573.794 496.892C569.923 501.868 567.159 507.12 568.818 512.649C569.923 516.519 575.452 520.389 572.688 522.877C571.306 523.983 569.371 526.747 569.094 528.406C568.818 529.235 568.818 529.235 568.541 529.788C568.265 530.065 568.541 530.065 568.818 530.065C570.2 529.788 570.2 529.235 570.753 528.406Z" fill="#333B41"/>
<path d="M589.068 502.529L589.98 502.268L590.023 503.216C590.171 506.468 588.778 510.366 586.489 513.442C585.302 515.037 583.841 516.455 582.18 517.449C583.273 517.074 584.476 516.384 585.693 515.169C588.928 511.679 589.82 507.242 590.856 501.554C589.89 501.64 588.939 501.856 587.962 502.139C587.321 502.325 586.677 502.536 586.011 502.757C585.971 502.77 585.93 502.784 585.89 502.797C585.272 503.002 584.636 503.213 583.983 503.409C578.854 505.302 576.079 507.66 575.071 510.365C574.82 511.654 574.855 512.819 575.293 513.696L575.33 513.77L575.35 513.849C575.524 514.543 576.225 515.185 577.166 515.702C578.218 514.713 578.95 513.83 579.671 512.912C579.496 513.093 579.332 513.265 579.177 513.428C579.051 513.56 578.931 513.686 578.816 513.806C578.619 514.009 578.429 514.199 578.255 514.35C578.097 514.486 577.878 514.658 577.624 514.743L577.435 514.806L577.24 514.767C576.345 514.588 575.673 514.094 575.397 513.266C575.15 512.525 575.273 511.655 575.561 510.78C576.055 508.847 577.571 507.336 579.814 506.055C582.072 504.764 585.184 503.639 589.068 502.529Z" stroke="#333B41" stroke-width="1.5"/>
<path d="M562.36 484.364C560.883 483.849 559.597 483.401 558.159 483.138C558.208 483.379 558.257 483.617 558.304 483.853C558.435 484.496 558.562 485.12 558.691 485.725C558.655 485.277 558.647 484.838 558.67 484.412L558.719 483.467L559.629 483.732C562.961 484.704 565.654 485.69 567.631 486.805C569.395 487.799 570.683 488.947 571.288 490.367C570.448 488.106 568.237 486.169 563.906 484.895L563.894 484.891L563.881 484.887C563.345 484.708 562.842 484.533 562.36 484.364ZM561.685 493.331C561.1 492.544 560.585 491.692 560.153 490.809C560.759 492.253 561.558 493.547 562.713 494.703L562.723 494.713L562.733 494.723C563.369 495.408 564.008 495.9 564.625 496.247C563.505 495.458 562.514 494.446 561.685 493.331ZM571.464 493.515C571.899 492.646 571.911 491.813 571.502 490.946C571.785 491.732 571.797 492.513 571.511 493.179C571.205 493.893 570.593 494.387 569.829 494.578L569.617 494.631L569.41 494.562C569.325 494.534 569.244 494.497 569.168 494.455C569.342 494.653 569.526 494.855 569.722 495.063L569.741 495.058C570.7 494.819 571.224 494.403 571.407 493.669L571.427 493.589L571.464 493.515Z" stroke="#333B41" stroke-width="1.5"/>
<path d="M586.782 484.673C586.456 485.062 586.108 485.432 585.74 485.777C585.907 485.637 586.074 485.484 586.243 485.317C586.433 485.107 586.613 484.892 586.782 484.673ZM589.99 475.463C589.993 475.448 589.996 475.434 589.999 475.419C588.467 475.717 586.89 476.196 585.114 476.862L585.114 476.862L585.103 476.866C581.625 478.107 579.715 479.508 578.864 481.382C579.443 480.192 580.486 479.221 581.954 478.377C583.663 477.396 586.017 476.546 589.076 475.712L589.99 475.463ZM579.914 485.164C579.613 485.064 579.353 484.91 579.14 484.712C579.328 485.057 579.588 485.341 579.951 485.521C580.056 485.411 580.157 485.304 580.255 485.198C580.221 485.201 580.186 485.203 580.151 485.203H580.029L579.914 485.164Z" stroke="#333B41" stroke-width="1.5"/>
</g>
<g clip-path="url(#clip3_0_1)">
<rect x="794.5" y="418.5" width="167" height="167" rx="4.5" fill="white" stroke="url(#paint5_linear_0_1)"/>
<path d="M798.789 626.336L801.758 620.625H803.461L799.539 627.758V632H798.039V627.758L794.117 620.625H795.836L798.789 626.336ZM803.805 627.695C803.805 626.867 803.966 626.122 804.289 625.461C804.617 624.799 805.07 624.289 805.648 623.93C806.232 623.57 806.896 623.391 807.641 623.391C808.792 623.391 809.721 623.789 810.43 624.586C811.143 625.383 811.5 626.443 811.5 627.766V627.867C811.5 628.69 811.341 629.43 811.023 630.086C810.711 630.737 810.26 631.245 809.672 631.609C809.089 631.974 808.417 632.156 807.656 632.156C806.51 632.156 805.581 631.758 804.867 630.961C804.159 630.164 803.805 629.109 803.805 627.797V627.695ZM805.258 627.867C805.258 628.805 805.474 629.557 805.906 630.125C806.344 630.693 806.927 630.977 807.656 630.977C808.391 630.977 808.974 630.69 809.406 630.117C809.839 629.539 810.055 628.732 810.055 627.695C810.055 626.768 809.833 626.018 809.391 625.445C808.953 624.867 808.37 624.578 807.641 624.578C806.927 624.578 806.352 624.862 805.914 625.43C805.477 625.997 805.258 626.81 805.258 627.867ZM818.531 631.164C817.969 631.826 817.143 632.156 816.055 632.156C815.154 632.156 814.466 631.896 813.992 631.375C813.523 630.849 813.286 630.073 813.281 629.047V623.547H814.727V629.008C814.727 630.289 815.247 630.93 816.289 630.93C817.393 630.93 818.128 630.518 818.492 629.695V623.547H819.938V632H818.562L818.531 631.164ZM826.227 624.844C826.008 624.807 825.771 624.789 825.516 624.789C824.568 624.789 823.924 625.193 823.586 626V632H822.141V623.547H823.547L823.57 624.523C824.044 623.768 824.716 623.391 825.586 623.391C825.867 623.391 826.081 623.427 826.227 623.5V624.844ZM832.242 632V624.664H830.906V623.547H832.242V622.68C832.242 621.773 832.484 621.073 832.969 620.578C833.453 620.083 834.138 619.836 835.023 619.836C835.357 619.836 835.688 619.88 836.016 619.969L835.938 621.141C835.693 621.094 835.432 621.07 835.156 621.07C834.688 621.07 834.326 621.208 834.07 621.484C833.815 621.755 833.688 622.146 833.688 622.656V623.547H835.492V624.664H833.688V632H832.242ZM842.312 632C842.229 631.833 842.161 631.536 842.109 631.109C841.438 631.807 840.635 632.156 839.703 632.156C838.87 632.156 838.185 631.922 837.648 631.453C837.117 630.979 836.852 630.38 836.852 629.656C836.852 628.776 837.185 628.094 837.852 627.609C838.523 627.12 839.466 626.875 840.68 626.875H842.086V626.211C842.086 625.706 841.935 625.305 841.633 625.008C841.331 624.706 840.885 624.555 840.297 624.555C839.781 624.555 839.349 624.685 839 624.945C838.651 625.206 838.477 625.521 838.477 625.891H837.023C837.023 625.469 837.172 625.062 837.469 624.672C837.771 624.276 838.177 623.964 838.688 623.734C839.203 623.505 839.768 623.391 840.383 623.391C841.357 623.391 842.12 623.635 842.672 624.125C843.224 624.609 843.51 625.279 843.531 626.133V630.023C843.531 630.799 843.63 631.417 843.828 631.875V632H842.312ZM839.914 630.898C840.367 630.898 840.797 630.781 841.203 630.547C841.609 630.312 841.904 630.008 842.086 629.633V627.898H840.953C839.182 627.898 838.297 628.417 838.297 629.453C838.297 629.906 838.448 630.26 838.75 630.516C839.052 630.771 839.44 630.898 839.914 630.898ZM848.461 630.039L850.555 623.547H852.031L849 632H847.898L844.836 623.547H846.312L848.461 630.039ZM852.914 627.695C852.914 626.867 853.076 626.122 853.398 625.461C853.727 624.799 854.18 624.289 854.758 623.93C855.341 623.57 856.005 623.391 856.75 623.391C857.901 623.391 858.831 623.789 859.539 624.586C860.253 625.383 860.609 626.443 860.609 627.766V627.867C860.609 628.69 860.451 629.43 860.133 630.086C859.82 630.737 859.37 631.245 858.781 631.609C858.198 631.974 857.526 632.156 856.766 632.156C855.62 632.156 854.69 631.758 853.977 630.961C853.268 630.164 852.914 629.109 852.914 627.797V627.695ZM854.367 627.867C854.367 628.805 854.583 629.557 855.016 630.125C855.453 630.693 856.036 630.977 856.766 630.977C857.5 630.977 858.083 630.69 858.516 630.117C858.948 629.539 859.164 628.732 859.164 627.695C859.164 626.768 858.943 626.018 858.5 625.445C858.062 624.867 857.479 624.578 856.75 624.578C856.036 624.578 855.461 624.862 855.023 625.43C854.586 625.997 854.367 626.81 854.367 627.867ZM867.641 631.164C867.078 631.826 866.253 632.156 865.164 632.156C864.263 632.156 863.576 631.896 863.102 631.375C862.633 630.849 862.396 630.073 862.391 629.047V623.547H863.836V629.008C863.836 630.289 864.357 630.93 865.398 630.93C866.503 630.93 867.237 630.518 867.602 629.695V623.547H869.047V632H867.672L867.641 631.164ZM875.336 624.844C875.117 624.807 874.88 624.789 874.625 624.789C873.677 624.789 873.034 625.193 872.695 626V632H871.25V623.547H872.656L872.68 624.523C873.154 623.768 873.826 623.391 874.695 623.391C874.977 623.391 875.19 623.427 875.336 623.5V624.844ZM878.242 632H876.797V623.547H878.242V632ZM876.68 621.305C876.68 621.07 876.75 620.872 876.891 620.711C877.036 620.549 877.25 620.469 877.531 620.469C877.812 620.469 878.026 620.549 878.172 620.711C878.318 620.872 878.391 621.07 878.391 621.305C878.391 621.539 878.318 621.734 878.172 621.891C878.026 622.047 877.812 622.125 877.531 622.125C877.25 622.125 877.036 622.047 876.891 621.891C876.75 621.734 876.68 621.539 876.68 621.305ZM882.523 621.5V623.547H884.102V624.664H882.523V629.906C882.523 630.245 882.594 630.5 882.734 630.672C882.875 630.839 883.115 630.922 883.453 630.922C883.62 630.922 883.849 630.891 884.141 630.828V632C883.76 632.104 883.391 632.156 883.031 632.156C882.385 632.156 881.898 631.961 881.57 631.57C881.242 631.18 881.078 630.625 881.078 629.906V624.664H879.539V623.547H881.078V621.5H882.523ZM889.305 632.156C888.159 632.156 887.227 631.781 886.508 631.031C885.789 630.276 885.43 629.268 885.43 628.008V627.742C885.43 626.904 885.589 626.156 885.906 625.5C886.229 624.839 886.677 624.323 887.25 623.953C887.828 623.578 888.453 623.391 889.125 623.391C890.224 623.391 891.078 623.753 891.688 624.477C892.297 625.201 892.602 626.237 892.602 627.586V628.188H886.875C886.896 629.021 887.138 629.695 887.602 630.211C888.07 630.721 888.664 630.977 889.383 630.977C889.893 630.977 890.326 630.872 890.68 630.664C891.034 630.456 891.344 630.18 891.609 629.836L892.492 630.523C891.784 631.612 890.721 632.156 889.305 632.156ZM889.125 624.578C888.542 624.578 888.052 624.792 887.656 625.219C887.26 625.641 887.016 626.234 886.922 627H891.156V626.891C891.115 626.156 890.917 625.589 890.562 625.188C890.208 624.781 889.729 624.578 889.125 624.578ZM903.469 632C903.385 631.833 903.318 631.536 903.266 631.109C902.594 631.807 901.792 632.156 900.859 632.156C900.026 632.156 899.341 631.922 898.805 631.453C898.273 630.979 898.008 630.38 898.008 629.656C898.008 628.776 898.341 628.094 899.008 627.609C899.68 627.12 900.622 626.875 901.836 626.875H903.242V626.211C903.242 625.706 903.091 625.305 902.789 625.008C902.487 624.706 902.042 624.555 901.453 624.555C900.938 624.555 900.505 624.685 900.156 624.945C899.807 625.206 899.633 625.521 899.633 625.891H898.18C898.18 625.469 898.328 625.062 898.625 624.672C898.927 624.276 899.333 623.964 899.844 623.734C900.359 623.505 900.924 623.391 901.539 623.391C902.513 623.391 903.276 623.635 903.828 624.125C904.38 624.609 904.667 625.279 904.688 626.133V630.023C904.688 630.799 904.786 631.417 904.984 631.875V632H903.469ZM901.07 630.898C901.523 630.898 901.953 630.781 902.359 630.547C902.766 630.312 903.06 630.008 903.242 629.633V627.898H902.109C900.339 627.898 899.453 628.417 899.453 629.453C899.453 629.906 899.604 630.26 899.906 630.516C900.208 630.771 900.596 630.898 901.07 630.898ZM908.32 623.547L908.367 624.609C909.013 623.797 909.857 623.391 910.898 623.391C912.685 623.391 913.586 624.398 913.602 626.414V632H912.156V626.406C912.151 625.797 912.01 625.346 911.734 625.055C911.464 624.763 911.039 624.617 910.461 624.617C909.992 624.617 909.581 624.742 909.227 624.992C908.872 625.242 908.596 625.57 908.398 625.977V632H906.953V623.547H908.32ZM917.352 632H915.906V623.547H917.352V632ZM915.789 621.305C915.789 621.07 915.859 620.872 916 620.711C916.146 620.549 916.359 620.469 916.641 620.469C916.922 620.469 917.135 620.549 917.281 620.711C917.427 620.872 917.5 621.07 917.5 621.305C917.5 621.539 917.427 621.734 917.281 621.891C917.135 622.047 916.922 622.125 916.641 622.125C916.359 622.125 916.146 622.047 916 621.891C915.859 621.734 915.789 621.539 915.789 621.305ZM921.031 623.547L921.07 624.484C921.69 623.755 922.526 623.391 923.578 623.391C924.76 623.391 925.565 623.844 925.992 624.75C926.273 624.344 926.638 624.016 927.086 623.766C927.539 623.516 928.073 623.391 928.688 623.391C930.542 623.391 931.484 624.372 931.516 626.336V632H930.07V626.422C930.07 625.818 929.932 625.367 929.656 625.07C929.38 624.768 928.917 624.617 928.266 624.617C927.729 624.617 927.284 624.779 926.93 625.102C926.576 625.419 926.37 625.849 926.312 626.391V632H924.859V626.461C924.859 625.232 924.258 624.617 923.055 624.617C922.107 624.617 921.458 625.021 921.109 625.828V632H919.664V623.547H921.031ZM938.922 632C938.839 631.833 938.771 631.536 938.719 631.109C938.047 631.807 937.245 632.156 936.312 632.156C935.479 632.156 934.794 631.922 934.258 631.453C933.727 630.979 933.461 630.38 933.461 629.656C933.461 628.776 933.794 628.094 934.461 627.609C935.133 627.12 936.076 626.875 937.289 626.875H938.695V626.211C938.695 625.706 938.544 625.305 938.242 625.008C937.94 624.706 937.495 624.555 936.906 624.555C936.391 624.555 935.958 624.685 935.609 624.945C935.26 625.206 935.086 625.521 935.086 625.891H933.633C933.633 625.469 933.781 625.062 934.078 624.672C934.38 624.276 934.786 623.964 935.297 623.734C935.812 623.505 936.378 623.391 936.992 623.391C937.966 623.391 938.729 623.635 939.281 624.125C939.833 624.609 940.12 625.279 940.141 626.133V630.023C940.141 630.799 940.24 631.417 940.438 631.875V632H938.922ZM936.523 630.898C936.977 630.898 937.406 630.781 937.812 630.547C938.219 630.312 938.513 630.008 938.695 629.633V627.898H937.562C935.792 627.898 934.906 628.417 934.906 629.453C934.906 629.906 935.057 630.26 935.359 630.516C935.661 630.771 936.049 630.898 936.523 630.898ZM943.977 632H942.531V620H943.977V632ZM794.75 649.703C794.75 648.385 795.055 647.339 795.664 646.562C796.273 645.781 797.081 645.391 798.086 645.391C799.117 645.391 799.922 645.755 800.5 646.484L800.57 645.547H801.891V653.797C801.891 654.891 801.565 655.753 800.914 656.383C800.268 657.013 799.398 657.328 798.305 657.328C797.695 657.328 797.099 657.198 796.516 656.938C795.932 656.677 795.487 656.32 795.18 655.867L795.93 655C796.549 655.766 797.307 656.148 798.203 656.148C798.906 656.148 799.453 655.951 799.844 655.555C800.24 655.159 800.438 654.602 800.438 653.883V653.156C799.859 653.823 799.07 654.156 798.07 654.156C797.081 654.156 796.279 653.758 795.664 652.961C795.055 652.164 794.75 651.078 794.75 649.703ZM796.203 649.867C796.203 650.82 796.398 651.57 796.789 652.117C797.18 652.659 797.727 652.93 798.43 652.93C799.341 652.93 800.01 652.516 800.438 651.688V647.828C799.995 647.021 799.331 646.617 798.445 646.617C797.742 646.617 797.193 646.891 796.797 647.438C796.401 647.984 796.203 648.794 796.203 649.867ZM807.586 654.156C806.44 654.156 805.508 653.781 804.789 653.031C804.07 652.276 803.711 651.268 803.711 650.008V649.742C803.711 648.904 803.87 648.156 804.188 647.5C804.51 646.839 804.958 646.323 805.531 645.953C806.109 645.578 806.734 645.391 807.406 645.391C808.505 645.391 809.359 645.753 809.969 646.477C810.578 647.201 810.883 648.237 810.883 649.586V650.188H805.156C805.177 651.021 805.419 651.695 805.883 652.211C806.352 652.721 806.945 652.977 807.664 652.977C808.174 652.977 808.607 652.872 808.961 652.664C809.315 652.456 809.625 652.18 809.891 651.836L810.773 652.523C810.065 653.612 809.003 654.156 807.586 654.156ZM807.406 646.578C806.823 646.578 806.333 646.792 805.938 647.219C805.542 647.641 805.297 648.234 805.203 649H809.438V648.891C809.396 648.156 809.198 647.589 808.844 647.188C808.49 646.781 808.01 646.578 807.406 646.578ZM814.523 643.5V645.547H816.102V646.664H814.523V651.906C814.523 652.245 814.594 652.5 814.734 652.672C814.875 652.839 815.115 652.922 815.453 652.922C815.62 652.922 815.849 652.891 816.141 652.828V654C815.76 654.104 815.391 654.156 815.031 654.156C814.385 654.156 813.898 653.961 813.57 653.57C813.242 653.18 813.078 652.625 813.078 651.906V646.664H811.539V645.547H813.078V643.5H814.523ZM822.719 651.758C822.719 651.367 822.57 651.065 822.273 650.852C821.982 650.633 821.469 650.445 820.734 650.289C820.005 650.133 819.424 649.945 818.992 649.727C818.565 649.508 818.247 649.247 818.039 648.945C817.836 648.643 817.734 648.284 817.734 647.867C817.734 647.174 818.026 646.589 818.609 646.109C819.198 645.63 819.948 645.391 820.859 645.391C821.818 645.391 822.594 645.638 823.188 646.133C823.786 646.628 824.086 647.26 824.086 648.031H822.633C822.633 647.635 822.464 647.294 822.125 647.008C821.792 646.721 821.37 646.578 820.859 646.578C820.333 646.578 819.922 646.693 819.625 646.922C819.328 647.151 819.18 647.451 819.18 647.82C819.18 648.169 819.318 648.432 819.594 648.609C819.87 648.786 820.367 648.956 821.086 649.117C821.81 649.279 822.396 649.471 822.844 649.695C823.292 649.919 823.622 650.19 823.836 650.508C824.055 650.82 824.164 651.203 824.164 651.656C824.164 652.411 823.862 653.018 823.258 653.477C822.654 653.93 821.87 654.156 820.906 654.156C820.229 654.156 819.63 654.036 819.109 653.797C818.589 653.557 818.18 653.224 817.883 652.797C817.591 652.365 817.445 651.898 817.445 651.398H818.891C818.917 651.883 819.109 652.268 819.469 652.555C819.833 652.836 820.312 652.977 820.906 652.977C821.453 652.977 821.891 652.867 822.219 652.648C822.552 652.424 822.719 652.128 822.719 651.758ZM829.664 649.703C829.664 648.406 829.971 647.365 830.586 646.578C831.201 645.786 832.005 645.391 833 645.391C833.99 645.391 834.773 645.729 835.352 646.406V642H836.797V654H835.469L835.398 653.094C834.82 653.802 834.016 654.156 832.984 654.156C832.005 654.156 831.206 653.755 830.586 652.953C829.971 652.151 829.664 651.104 829.664 649.812V649.703ZM831.109 649.867C831.109 650.826 831.307 651.576 831.703 652.117C832.099 652.659 832.646 652.93 833.344 652.93C834.26 652.93 834.93 652.518 835.352 651.695V647.812C834.919 647.016 834.255 646.617 833.359 646.617C832.651 646.617 832.099 646.891 831.703 647.438C831.307 647.984 831.109 648.794 831.109 649.867ZM842.555 654.156C841.409 654.156 840.477 653.781 839.758 653.031C839.039 652.276 838.68 651.268 838.68 650.008V649.742C838.68 648.904 838.839 648.156 839.156 647.5C839.479 646.839 839.927 646.323 840.5 645.953C841.078 645.578 841.703 645.391 842.375 645.391C843.474 645.391 844.328 645.753 844.938 646.477C845.547 647.201 845.852 648.237 845.852 649.586V650.188H840.125C840.146 651.021 840.388 651.695 840.852 652.211C841.32 652.721 841.914 652.977 842.633 652.977C843.143 652.977 843.576 652.872 843.93 652.664C844.284 652.456 844.594 652.18 844.859 651.836L845.742 652.523C845.034 653.612 843.971 654.156 842.555 654.156ZM842.375 646.578C841.792 646.578 841.302 646.792 840.906 647.219C840.51 647.641 840.266 648.234 840.172 649H844.406V648.891C844.365 648.156 844.167 647.589 843.812 647.188C843.458 646.781 842.979 646.578 842.375 646.578ZM849.102 654H847.656V642H849.102V654ZM852.992 654H851.547V645.547H852.992V654ZM851.43 643.305C851.43 643.07 851.5 642.872 851.641 642.711C851.786 642.549 852 642.469 852.281 642.469C852.562 642.469 852.776 642.549 852.922 642.711C853.068 642.872 853.141 643.07 853.141 643.305C853.141 643.539 853.068 643.734 852.922 643.891C852.776 644.047 852.562 644.125 852.281 644.125C852 644.125 851.786 644.047 851.641 643.891C851.5 643.734 851.43 643.539 851.43 643.305ZM858.703 652.977C859.219 652.977 859.669 652.82 860.055 652.508C860.44 652.195 860.654 651.805 860.695 651.336H862.062C862.036 651.82 861.87 652.281 861.562 652.719C861.255 653.156 860.844 653.505 860.328 653.766C859.818 654.026 859.276 654.156 858.703 654.156C857.552 654.156 856.635 653.773 855.953 653.008C855.276 652.237 854.938 651.185 854.938 649.852V649.609C854.938 648.786 855.089 648.055 855.391 647.414C855.693 646.773 856.125 646.276 856.688 645.922C857.255 645.568 857.924 645.391 858.695 645.391C859.643 645.391 860.43 645.674 861.055 646.242C861.685 646.81 862.021 647.547 862.062 648.453H860.695C860.654 647.906 860.445 647.458 860.07 647.109C859.701 646.755 859.242 646.578 858.695 646.578C857.961 646.578 857.391 646.844 856.984 647.375C856.583 647.901 856.383 648.664 856.383 649.664V649.938C856.383 650.911 856.583 651.661 856.984 652.188C857.385 652.714 857.958 652.977 858.703 652.977ZM865.258 654H863.812V645.547H865.258V654ZM863.695 643.305C863.695 643.07 863.766 642.872 863.906 642.711C864.052 642.549 864.266 642.469 864.547 642.469C864.828 642.469 865.042 642.549 865.188 642.711C865.333 642.872 865.406 643.07 865.406 643.305C865.406 643.539 865.333 643.734 865.188 643.891C865.042 644.047 864.828 644.125 864.547 644.125C864.266 644.125 864.052 644.047 863.906 643.891C863.766 643.734 863.695 643.539 863.695 643.305ZM867.195 649.695C867.195 648.867 867.357 648.122 867.68 647.461C868.008 646.799 868.461 646.289 869.039 645.93C869.622 645.57 870.286 645.391 871.031 645.391C872.182 645.391 873.112 645.789 873.82 646.586C874.534 647.383 874.891 648.443 874.891 649.766V649.867C874.891 650.69 874.732 651.43 874.414 652.086C874.102 652.737 873.651 653.245 873.062 653.609C872.479 653.974 871.807 654.156 871.047 654.156C869.901 654.156 868.971 653.758 868.258 652.961C867.549 652.164 867.195 651.109 867.195 649.797V649.695ZM868.648 649.867C868.648 650.805 868.865 651.557 869.297 652.125C869.734 652.693 870.318 652.977 871.047 652.977C871.781 652.977 872.365 652.69 872.797 652.117C873.229 651.539 873.445 650.732 873.445 649.695C873.445 648.768 873.224 648.018 872.781 647.445C872.344 646.867 871.76 646.578 871.031 646.578C870.318 646.578 869.742 646.862 869.305 647.43C868.867 647.997 868.648 648.81 868.648 649.867ZM881.922 653.164C881.359 653.826 880.534 654.156 879.445 654.156C878.544 654.156 877.857 653.896 877.383 653.375C876.914 652.849 876.677 652.073 876.672 651.047V645.547H878.117V651.008C878.117 652.289 878.638 652.93 879.68 652.93C880.784 652.93 881.518 652.518 881.883 651.695V645.547H883.328V654H881.953L881.922 653.164ZM890.453 651.758C890.453 651.367 890.305 651.065 890.008 650.852C889.716 650.633 889.203 650.445 888.469 650.289C887.74 650.133 887.159 649.945 886.727 649.727C886.299 649.508 885.982 649.247 885.773 648.945C885.57 648.643 885.469 648.284 885.469 647.867C885.469 647.174 885.76 646.589 886.344 646.109C886.932 645.63 887.682 645.391 888.594 645.391C889.552 645.391 890.328 645.638 890.922 646.133C891.521 646.628 891.82 647.26 891.82 648.031H890.367C890.367 647.635 890.198 647.294 889.859 647.008C889.526 646.721 889.104 646.578 888.594 646.578C888.068 646.578 887.656 646.693 887.359 646.922C887.062 647.151 886.914 647.451 886.914 647.82C886.914 648.169 887.052 648.432 887.328 648.609C887.604 648.786 888.102 648.956 888.82 649.117C889.544 649.279 890.13 649.471 890.578 649.695C891.026 649.919 891.357 650.19 891.57 650.508C891.789 650.82 891.898 651.203 891.898 651.656C891.898 652.411 891.596 653.018 890.992 653.477C890.388 653.93 889.604 654.156 888.641 654.156C887.964 654.156 887.365 654.036 886.844 653.797C886.323 653.557 885.914 653.224 885.617 652.797C885.326 652.365 885.18 651.898 885.18 651.398H886.625C886.651 651.883 886.844 652.268 887.203 652.555C887.568 652.836 888.047 652.977 888.641 652.977C889.188 652.977 889.625 652.867 889.953 652.648C890.286 652.424 890.453 652.128 890.453 651.758ZM897.398 649.703C897.398 648.406 897.706 647.365 898.32 646.578C898.935 645.786 899.74 645.391 900.734 645.391C901.724 645.391 902.508 645.729 903.086 646.406V642H904.531V654H903.203L903.133 653.094C902.555 653.802 901.75 654.156 900.719 654.156C899.74 654.156 898.94 653.755 898.32 652.953C897.706 652.151 897.398 651.104 897.398 649.812V649.703ZM898.844 649.867C898.844 650.826 899.042 651.576 899.438 652.117C899.833 652.659 900.38 652.93 901.078 652.93C901.995 652.93 902.664 652.518 903.086 651.695V647.812C902.654 647.016 901.99 646.617 901.094 646.617C900.385 646.617 899.833 646.891 899.438 647.438C899.042 647.984 898.844 648.794 898.844 649.867ZM908.352 654H906.906V645.547H908.352V654ZM906.789 643.305C906.789 643.07 906.859 642.872 907 642.711C907.146 642.549 907.359 642.469 907.641 642.469C907.922 642.469 908.135 642.549 908.281 642.711C908.427 642.872 908.5 643.07 908.5 643.305C908.5 643.539 908.427 643.734 908.281 643.891C908.135 644.047 907.922 644.125 907.641 644.125C907.359 644.125 907.146 644.047 907 643.891C906.859 643.734 906.789 643.539 906.789 643.305ZM915.594 651.758C915.594 651.367 915.445 651.065 915.148 650.852C914.857 650.633 914.344 650.445 913.609 650.289C912.88 650.133 912.299 649.945 911.867 649.727C911.44 649.508 911.122 649.247 910.914 648.945C910.711 648.643 910.609 648.284 910.609 647.867C910.609 647.174 910.901 646.589 911.484 646.109C912.073 645.63 912.823 645.391 913.734 645.391C914.693 645.391 915.469 645.638 916.062 646.133C916.661 646.628 916.961 647.26 916.961 648.031H915.508C915.508 647.635 915.339 647.294 915 647.008C914.667 646.721 914.245 646.578 913.734 646.578C913.208 646.578 912.797 646.693 912.5 646.922C912.203 647.151 912.055 647.451 912.055 647.82C912.055 648.169 912.193 648.432 912.469 648.609C912.745 648.786 913.242 648.956 913.961 649.117C914.685 649.279 915.271 649.471 915.719 649.695C916.167 649.919 916.497 650.19 916.711 650.508C916.93 650.82 917.039 651.203 917.039 651.656C917.039 652.411 916.737 653.018 916.133 653.477C915.529 653.93 914.745 654.156 913.781 654.156C913.104 654.156 912.505 654.036 911.984 653.797C911.464 653.557 911.055 653.224 910.758 652.797C910.466 652.365 910.32 651.898 910.32 651.398H911.766C911.792 651.883 911.984 652.268 912.344 652.555C912.708 652.836 913.188 652.977 913.781 652.977C914.328 652.977 914.766 652.867 915.094 652.648C915.427 652.424 915.594 652.128 915.594 651.758ZM920.367 646.57C921.008 645.784 921.841 645.391 922.867 645.391C924.654 645.391 925.555 646.398 925.57 648.414V654H924.125V648.406C924.12 647.797 923.979 647.346 923.703 647.055C923.432 646.763 923.008 646.617 922.43 646.617C921.961 646.617 921.549 646.742 921.195 646.992C920.841 647.242 920.565 647.57 920.367 647.977V654H918.922V642H920.367V646.57Z" fill="#333B41"/>
<path d="M860.398 515.054C860.218 514.714 860.038 514.43 859.918 514.089C859.077 512.157 859.077 510.68 859.377 508.806C859.617 507.442 859.557 506.76 859.137 506.249C858.656 505.681 857.936 505.624 856.914 505.511H856.734C856.434 505.454 856.134 505.454 855.893 505.454C853.551 505.34 852.229 505.397 851.629 506.249C851.028 507.044 851.448 508.237 852.289 509.942C852.71 510.794 852.89 511.646 853.01 512.271C851.989 512.328 850.788 512.782 849.346 513.35C846.403 514.486 842.378 516.077 837.453 514.657C831.626 513.009 826.761 508.635 824.118 506.249C822.857 505.113 822.316 504.602 821.896 504.488C821.295 504.318 820.514 504.715 820.094 504.943L819.853 505.056C819.553 505.283 819.132 505.624 818.952 506.022C818.532 507.329 818.472 509.771 819.493 512.498C819.132 512.328 818.892 512.271 818.652 512.214C818.051 512.157 817.391 512.612 816.85 513.123L816.67 513.293C816.369 513.577 816.009 514.032 816.009 514.486C815.889 516.588 816.97 519.883 819.553 522.951H819.493C818.892 523.064 818.352 523.746 817.991 524.371V524.598C817.811 524.996 817.631 525.507 817.691 525.962C818.292 528.291 820.754 531.643 824.899 533.972C827.422 535.392 831.266 536.755 836.552 536.755C838.894 536.755 841.537 536.471 844.421 535.79C851.268 534.199 857.635 529.597 860.218 524.201C861.84 521.019 861.9 517.838 860.398 515.054ZM820.033 506.306C820.033 506.306 820.094 506.249 820.094 506.192C820.214 506.42 820.394 506.704 820.574 506.988C822.136 509.658 825.56 515.679 833.609 518.69C828.623 517.497 824.178 515.054 821.535 513.577C821.355 513.464 821.175 513.35 820.995 513.293C819.733 510.51 819.553 507.783 820.033 506.306ZM817.15 514.6C817.15 514.6 817.15 514.486 817.27 514.373C817.451 514.543 817.751 514.884 818.051 515.168C820.574 517.838 826.521 524.144 837.393 524.769C837.753 524.769 838.053 524.769 838.414 524.769C839.495 524.769 840.636 524.655 841.657 524.428C841.537 524.485 841.357 524.485 841.237 524.542C834.449 526.075 826.941 524.371 822.917 523.462C822.256 523.292 821.715 523.178 821.295 523.121C818.231 520.11 817.03 516.588 817.15 514.6ZM859.257 523.86C856.794 528.916 850.788 533.347 844.24 534.824C827.542 538.63 819.733 529.484 818.772 525.735C818.772 525.678 818.772 525.621 818.832 525.45C819.132 525.564 819.493 525.791 819.853 526.019C823.277 528.007 831.266 532.608 842.378 530.052C849.706 528.405 853.431 523.064 855.593 519.145C855.713 518.917 855.653 518.577 855.353 518.463C855.112 518.349 854.752 518.406 854.632 518.69C852.59 522.383 848.986 527.496 842.078 529.086C831.386 531.529 823.698 527.041 820.394 525.166C819.913 524.882 819.553 524.655 819.253 524.542C819.493 524.201 819.733 523.973 819.853 523.973C820.154 523.917 821.415 524.201 822.616 524.485C825.5 525.166 830.185 526.189 835.17 526.189C837.213 526.189 839.375 526.019 841.417 525.507C846.703 524.314 849.826 521.303 852.349 518.236C852.529 518.009 852.469 517.668 852.229 517.497C851.989 517.327 851.628 517.384 851.448 517.611C851.208 517.895 850.908 518.236 850.667 518.52C846.403 522.269 842.018 523.973 837.333 523.689C826.941 523.121 821.175 517.043 818.712 514.43C818.352 514.032 818.111 513.805 817.871 513.577C818.171 513.35 818.412 513.237 818.532 513.237C818.832 513.293 819.853 513.861 820.874 514.43C824.358 516.361 830.845 519.94 837.693 520.338C838.053 520.338 838.354 520.338 838.714 520.338C841.117 520.338 843.159 519.883 844.961 519.145H845.021C845.081 519.145 845.081 519.088 845.141 519.088C847.424 518.179 849.226 516.929 850.788 515.907C851.328 515.566 851.809 515.225 852.229 514.941C852.469 514.77 852.529 514.486 852.409 514.259C852.229 514.032 851.929 513.975 851.689 514.089C851.208 514.373 850.728 514.714 850.187 515.054C848.625 516.077 846.823 517.327 844.541 518.179C841.597 519.031 838.714 519.088 835.951 518.293C826.821 515.736 823.097 509.203 821.475 506.42C821.235 506.022 821.115 505.738 820.934 505.511C821.235 505.397 821.415 505.34 821.535 505.34C821.775 505.454 822.556 506.136 823.337 506.874C825.98 509.26 830.966 513.748 837.032 515.452C838.534 515.85 839.976 516.02 841.297 516.02C844.661 516.02 847.424 514.941 849.646 514.089C851.208 513.464 852.529 512.953 853.431 513.123H853.491H853.551C853.551 513.123 853.551 513.123 853.611 513.123C853.671 513.123 853.671 513.123 853.731 513.066C853.731 513.066 853.791 513.066 853.791 513.009C853.851 513.009 853.851 512.953 853.911 512.953L853.971 512.896C853.971 512.896 854.031 512.839 854.031 512.782C854.031 512.725 854.031 512.725 854.091 512.669C854.091 512.669 854.091 512.669 854.091 512.612V512.555V512.498C854.031 511.816 853.851 510.453 853.25 509.203C852.95 508.578 852.169 506.988 852.529 506.533C852.83 506.079 854.452 506.136 855.893 506.192C856.134 506.192 856.374 506.192 856.614 506.249H856.794C857.575 506.306 858.116 506.42 858.296 506.59C858.476 506.817 858.476 507.385 858.356 508.351C857.996 510.339 857.996 512.044 858.957 514.202C859.077 514.543 859.257 514.884 859.437 515.225C860.759 518.009 860.699 520.849 859.257 523.86Z" fill="#333B41" stroke="#333B41" stroke-width="0.7"/>
<path d="M857.696 522.894C857.456 522.78 857.096 522.894 856.976 523.121C854.693 527.779 849.107 531.87 843.04 533.233C842.74 533.29 842.56 533.574 842.62 533.858C842.68 534.085 842.92 534.256 843.16 534.256C843.22 534.256 843.22 534.256 843.28 534.256C849.708 532.835 855.594 528.518 857.997 523.576C858.117 523.348 857.997 523.064 857.696 522.894Z" fill="#333B41" stroke="#333B41" stroke-width="0.7"/>
<path d="M883.625 466.008C880.428 465.905 877.282 466.828 874.642 468.641C872.002 470.454 870.005 473.064 868.942 476.092C868.892 476.235 868.805 476.361 868.69 476.458C868.575 476.555 868.436 476.619 868.288 476.643C866.667 476.919 865.197 477.766 864.143 479.032C863.089 480.299 862.52 481.902 862.539 483.552C862.557 485.202 863.162 486.792 864.244 488.034C865.326 489.277 866.814 490.091 868.441 490.33C868.603 490.353 868.754 490.424 868.877 490.534C868.999 490.643 869.087 490.786 869.129 490.945C869.925 493.921 871.64 496.567 874.028 498.503C876.416 500.439 879.354 501.566 882.419 501.721C881.75 504.174 881.345 506.693 881.21 509.233L876.149 508.43C875.082 508.261 873.992 508.524 873.118 509.161C872.245 509.799 871.659 510.759 871.49 511.83C871.321 512.901 871.583 513.995 872.218 514.872C872.853 515.749 873.809 516.337 874.876 516.507L881.749 517.597C881.945 518.666 882.188 519.725 882.48 520.771C880.916 522.479 880.048 524.715 880.048 527.035V528.481C880.048 528.705 879.959 528.919 879.802 529.076C879.645 529.234 879.432 529.323 879.21 529.323H878.708C878.113 529.323 877.524 529.44 876.975 529.668C876.425 529.897 875.925 530.231 875.505 530.653C875.084 531.075 874.75 531.577 874.523 532.128C874.295 532.68 874.178 533.271 874.177 533.868V535.054C874.178 535.389 874.243 535.721 874.371 536.03C874.499 536.34 874.686 536.621 874.923 536.858C875.159 537.094 875.439 537.282 875.748 537.41C876.056 537.538 876.387 537.604 876.72 537.603H908.923C913.252 537.604 917.532 536.686 921.483 534.91C925.434 533.133 928.966 530.539 931.848 527.296C936.41 522.704 939.459 516.818 940.582 510.432C941.273 504.885 939.773 499.287 936.404 494.836C933.774 491.448 930.2 488.919 926.137 487.573C923.33 486.724 920.327 486.796 917.564 487.779C914.801 488.761 912.423 490.603 910.774 493.036C910.46 493.497 910.241 494.015 910.127 494.562C910.014 495.108 910.008 495.671 910.112 496.22C910.215 496.768 910.426 497.291 910.73 497.757C911.035 498.224 911.429 498.626 911.888 498.94C912.348 499.254 912.865 499.474 913.409 499.587C913.953 499.7 914.515 499.705 915.061 499.6C915.607 499.496 916.127 499.284 916.592 498.977C917.056 498.671 917.456 498.275 917.768 497.813C918.395 496.888 919.296 496.185 920.343 495.801C921.39 495.418 922.53 495.375 923.603 495.678C926.011 496.501 928.128 498.008 929.699 500.016C931.667 502.637 932.567 505.913 932.214 509.176C931.343 513.846 929.066 518.135 925.689 521.463C922.458 525.178 918.093 527.715 913.276 528.679C913.236 528.687 913.195 528.685 913.157 528.672C913.118 528.66 913.083 528.639 913.055 528.609C913.027 528.58 913.007 528.545 912.996 528.506C912.985 528.466 912.984 528.425 912.993 528.386C914.479 522.132 914.056 515.574 911.78 509.565C910.615 505.795 908.669 502.315 906.072 499.353C903.474 496.39 900.283 494.011 896.706 492.372C896.884 491.905 897.037 491.428 897.166 490.945C897.209 490.786 897.297 490.643 897.419 490.533C897.542 490.424 897.693 490.353 897.855 490.33C899.482 490.09 900.97 489.276 902.052 488.033C903.133 486.79 903.738 485.201 903.756 483.55C903.774 481.9 903.204 480.298 902.15 479.031C901.096 477.765 899.626 476.918 898.005 476.643C897.857 476.618 897.718 476.554 897.603 476.457C897.488 476.36 897.401 476.234 897.351 476.092C896.342 473.219 894.491 470.718 892.042 468.919C889.593 467.119 886.659 466.105 883.625 466.008ZM882.683 467.114C885.646 467.018 888.563 467.873 891.01 469.554C893.458 471.234 895.308 473.654 896.293 476.462C896.409 476.791 896.61 477.082 896.875 477.306C897.141 477.53 897.462 477.679 897.804 477.737C899.165 477.968 900.399 478.679 901.284 479.743C902.169 480.806 902.647 482.151 902.632 483.536C902.617 484.922 902.11 486.257 901.203 487.3C900.295 488.344 899.046 489.028 897.681 489.23C897.305 489.285 896.954 489.449 896.67 489.703C896.386 489.956 896.182 490.287 896.084 490.655C895.664 492.227 894.964 493.71 894.017 495.031C894.145 492.442 893.252 489.907 891.531 487.975C891.511 487.948 891.497 487.918 891.49 487.886C891.482 487.854 891.481 487.82 891.487 487.788C891.493 487.755 891.505 487.724 891.523 487.697C891.541 487.669 891.564 487.645 891.591 487.627C892.958 486.452 893.835 484.805 894.048 483.011C894.261 481.218 893.794 479.41 892.741 477.945C891.688 476.481 890.125 475.467 888.363 475.106C886.6 474.744 884.766 475.061 883.225 475.993C883.002 476.128 882.746 476.2 882.486 476.2C882.225 476.2 881.969 476.128 881.746 475.993H881.73C880.189 475.065 878.357 474.751 876.596 475.114C874.836 475.476 873.275 476.49 872.224 477.953C871.172 479.416 870.706 481.222 870.918 483.014C871.13 484.805 872.004 486.452 873.367 487.627C873.39 487.65 873.408 487.677 873.421 487.707C873.433 487.736 873.44 487.768 873.44 487.801C873.44 487.833 873.433 487.865 873.421 487.895C873.408 487.925 873.39 487.952 873.367 487.975C872.13 489.366 871.312 491.081 871.008 492.921C870.664 492.192 870.385 491.434 870.176 490.655C870.078 490.287 869.875 489.957 869.592 489.703C869.309 489.45 868.958 489.286 868.583 489.23C867.217 489.028 865.968 488.344 865.061 487.3C864.153 486.257 863.646 484.922 863.631 483.536C863.617 482.151 864.095 480.806 864.98 479.743C865.865 478.679 867.098 477.968 868.459 477.737C868.801 477.679 869.121 477.53 869.386 477.306C869.651 477.081 869.852 476.79 869.967 476.462C870.902 473.799 872.616 471.481 874.885 469.813C877.154 468.145 879.872 467.204 882.683 467.114ZM877.815 476.07C877.971 476.064 878.127 476.064 878.282 476.07C879.297 476.114 880.285 476.413 881.155 476.94C881.551 477.179 882.003 477.305 882.465 477.305C882.926 477.305 883.379 477.179 883.775 476.94C885.078 476.155 886.628 475.89 888.117 476.197C889.605 476.505 890.925 477.362 891.814 478.6C892.703 479.838 893.097 481.366 892.918 482.881C892.738 484.396 891.998 485.789 890.845 486.783C890.709 486.9 890.599 487.044 890.519 487.205C890.439 487.366 890.393 487.542 890.381 487.721C890.37 487.901 890.395 488.081 890.454 488.251C890.513 488.421 890.605 488.577 890.725 488.711C891.668 489.77 892.34 491.045 892.683 492.424C893.025 493.803 893.028 495.245 892.69 496.625C891.291 498.046 889.595 499.138 887.725 499.819C885.854 500.501 883.855 500.757 881.874 500.567C879.893 500.377 877.979 499.747 876.27 498.722C874.562 497.697 873.102 496.304 871.996 494.642C871.97 492.456 872.761 490.34 874.212 488.711C874.332 488.576 874.423 488.42 874.481 488.249C874.539 488.079 874.563 487.899 874.551 487.719C874.539 487.54 874.491 487.364 874.41 487.204C874.33 487.043 874.218 486.9 874.082 486.783C873.153 485.986 872.485 484.925 872.166 483.74C871.847 482.556 871.892 481.302 872.296 480.143C872.699 478.985 873.442 477.976 874.426 477.248C875.411 476.521 876.591 476.109 877.813 476.067L877.815 476.07ZM922.06 488.096C923.33 488.084 924.593 488.265 925.81 488.631C929.656 489.911 933.037 492.307 935.528 495.516C938.714 499.726 940.137 505.019 939.493 510.267C938.402 516.429 935.453 522.108 931.045 526.534C928.266 529.667 924.859 532.174 921.047 533.891C917.235 535.608 913.104 536.495 908.926 536.495H876.723C876.535 536.495 876.348 536.458 876.173 536.386C875.999 536.314 875.84 536.208 875.707 536.074C875.573 535.94 875.467 535.781 875.395 535.606C875.322 535.431 875.285 535.243 875.285 535.054V533.868C875.285 533.417 875.374 532.97 875.546 532.553C875.718 532.136 875.971 531.757 876.289 531.438C876.607 531.119 876.984 530.866 877.4 530.693C877.816 530.521 878.261 530.432 878.711 530.432H879.212C879.468 530.433 879.721 530.383 879.957 530.285C880.193 530.187 880.407 530.043 880.588 529.862C880.769 529.681 880.912 529.466 881.01 529.229C881.108 528.992 881.158 528.738 881.159 528.482V527.035C881.208 524.909 882.084 522.887 883.599 521.4C885.114 519.914 887.149 519.082 889.267 519.082C891.385 519.082 893.42 519.914 894.935 521.4C896.45 522.887 897.326 524.909 897.376 527.035V529.511C897.38 529.656 897.44 529.792 897.543 529.893C897.646 529.994 897.784 530.05 897.928 530.05C898.072 530.05 898.21 529.994 898.313 529.893C898.416 529.792 898.476 529.656 898.48 529.511V527.035C898.481 525.414 898.057 523.822 897.252 522.418C896.447 521.013 895.289 519.845 893.893 519.032C894.743 518.83 895.544 518.459 896.249 517.941C896.953 517.423 897.546 516.768 897.994 516.015C898.441 515.261 898.733 514.426 898.852 513.557C898.971 512.688 898.915 511.805 898.687 510.958C898.096 508.765 897.279 506.641 896.249 504.618C896.182 504.487 896.066 504.389 895.926 504.343C895.786 504.298 895.634 504.311 895.504 504.378C895.373 504.445 895.275 504.562 895.23 504.702C895.185 504.842 895.197 504.995 895.264 505.126C896.259 507.079 897.047 509.131 897.617 511.248C897.852 512.123 897.866 513.042 897.657 513.924C897.448 514.805 897.023 515.62 896.42 516.294C895.818 516.968 895.057 517.48 894.207 517.783C893.356 518.087 892.444 518.172 891.553 518.031L875.053 515.411C874.278 515.285 873.585 514.856 873.125 514.217C872.664 513.579 872.475 512.784 872.597 512.006C872.72 511.227 873.145 510.529 873.779 510.065C874.413 509.6 875.205 509.407 875.98 509.527L888.683 511.545C888.827 511.566 888.974 511.53 889.091 511.443C889.209 511.356 889.287 511.227 889.31 511.082C889.333 510.937 889.297 510.79 889.212 510.671C889.127 510.553 888.998 510.472 888.854 510.448L882.311 509.41C882.44 506.812 882.861 504.237 883.565 501.734C886.244 501.657 888.849 500.837 891.092 499.365C893.336 497.893 895.129 495.826 896.274 493.393C899.709 494.971 902.773 497.259 905.265 500.108C907.758 502.957 909.623 506.303 910.739 509.926C912.946 515.736 913.357 522.079 911.92 528.128C911.867 528.349 911.871 528.58 911.93 528.799C911.99 529.018 912.103 529.218 912.26 529.382C912.417 529.545 912.612 529.666 912.828 529.734C913.043 529.802 913.273 529.814 913.494 529.77C918.538 528.76 923.109 526.109 926.499 522.226C930.029 518.731 932.406 514.233 933.309 509.339C933.705 505.778 932.728 502.201 930.578 499.341C928.868 497.151 926.559 495.509 923.933 494.617C922.634 494.245 921.252 494.293 919.982 494.755C918.712 495.216 917.62 496.068 916.86 497.189C916.629 497.53 916.333 497.822 915.99 498.048C915.647 498.274 915.262 498.43 914.859 498.507C914.456 498.584 914.041 498.58 913.639 498.496C913.237 498.413 912.856 498.25 912.516 498.018C912.177 497.786 911.886 497.49 911.661 497.145C911.436 496.8 911.281 496.414 911.204 496.01C911.127 495.605 911.131 495.188 911.215 494.785C911.298 494.381 911.46 493.998 911.691 493.658C912.843 491.959 914.388 490.565 916.194 489.597C918 488.628 920.013 488.113 922.06 488.096ZM882.914 517.782L886.213 518.305C885.188 518.667 884.234 519.209 883.397 519.905C883.215 519.202 883.055 518.494 882.917 517.782H882.914Z" fill="#333B41" stroke="#333B41" stroke-width="0.7"/>
<path d="M887.068 479.631C886.449 479.642 885.86 479.898 885.429 480.343C884.998 480.789 884.759 481.387 884.766 482.009C884.766 482.633 885.013 483.231 885.453 483.673C885.892 484.114 886.489 484.362 887.111 484.362C887.732 484.362 888.329 484.114 888.769 483.673C889.208 483.231 889.455 482.633 889.455 482.009C889.459 481.694 889.399 481.381 889.28 481.09C889.161 480.799 888.985 480.534 888.762 480.313C888.54 480.091 888.275 479.916 887.984 479.799C887.693 479.682 887.381 479.625 887.068 479.631ZM887.087 480.753C887.253 480.749 887.418 480.779 887.572 480.841C887.726 480.903 887.866 480.995 887.984 481.112C888.102 481.229 888.195 481.369 888.258 481.523C888.321 481.677 888.353 481.842 888.351 482.009C888.351 482.172 888.319 482.334 888.257 482.485C888.194 482.636 888.103 482.773 887.988 482.889C887.873 483.005 887.736 483.096 887.586 483.159C887.435 483.221 887.274 483.254 887.111 483.254C886.948 483.254 886.787 483.221 886.637 483.159C886.486 483.096 886.349 483.005 886.234 482.889C886.119 482.773 886.028 482.636 885.966 482.485C885.903 482.334 885.871 482.172 885.871 482.009C885.868 481.68 885.994 481.364 886.222 481.129C886.45 480.894 886.761 480.759 887.087 480.753Z" fill="#333B41" stroke="#333B41" stroke-width="0.7"/>
<path d="M877.785 479.631C877.166 479.642 876.577 479.898 876.146 480.343C875.715 480.789 875.477 481.387 875.483 482.008C875.474 482.323 875.528 482.636 875.642 482.929C875.756 483.222 875.927 483.49 876.145 483.715C876.364 483.941 876.625 484.12 876.914 484.243C877.203 484.365 877.513 484.428 877.826 484.428C878.14 484.428 878.45 484.365 878.738 484.243C879.027 484.12 879.288 483.941 879.507 483.715C879.725 483.49 879.897 483.222 880.01 482.929C880.124 482.636 880.178 482.323 880.169 482.008C880.173 481.694 880.113 481.382 879.994 481.091C879.875 480.8 879.7 480.536 879.477 480.314C879.255 480.092 878.991 479.918 878.7 479.8C878.409 479.683 878.098 479.625 877.785 479.631ZM877.804 480.753C877.97 480.75 878.134 480.78 878.288 480.842C878.442 480.904 878.581 480.996 878.699 481.113C878.816 481.23 878.909 481.37 878.972 481.524C879.035 481.677 879.066 481.842 879.065 482.008C879.069 482.174 879.04 482.339 878.98 482.494C878.919 482.649 878.829 482.789 878.714 482.908C878.598 483.027 878.46 483.121 878.308 483.186C878.156 483.25 877.992 483.284 877.827 483.284C877.661 483.284 877.498 483.25 877.345 483.186C877.193 483.121 877.055 483.027 876.94 482.908C876.824 482.789 876.734 482.649 876.673 482.494C876.613 482.339 876.584 482.174 876.588 482.008C876.585 481.68 876.711 481.364 876.939 481.129C877.166 480.894 877.478 480.758 877.804 480.753Z" fill="#333B41" stroke="#333B41" stroke-width="0.7"/>
<path d="M878.498 493.826C878.947 494.464 879.542 494.985 880.233 495.344C880.923 495.703 881.69 495.891 882.468 495.891C883.246 495.891 884.012 495.703 884.703 495.344C885.394 494.985 885.989 494.464 886.438 493.826C886.52 493.706 886.551 493.558 886.526 493.415C886.5 493.271 886.419 493.143 886.3 493.059C886.182 492.975 886.035 492.942 885.892 492.965C885.748 492.989 885.62 493.068 885.535 493.186C885.188 493.679 884.728 494.081 884.195 494.359C883.661 494.636 883.069 494.781 882.468 494.781C881.867 494.781 881.275 494.636 880.741 494.359C880.208 494.081 879.748 493.679 879.401 493.186C879.316 493.068 879.188 492.989 879.044 492.965C878.901 492.942 878.754 492.975 878.635 493.059C878.517 493.143 878.436 493.271 878.41 493.415C878.384 493.558 878.416 493.706 878.498 493.826Z" fill="#333B41" stroke="#333B41" stroke-width="0.7"/>
</g>
</g>
<defs>
<filter id="filter0_b_0_1" x="-4" y="-4" width="1168" height="843" filterUnits="userSpaceOnUse" color-interpolation-filters="sRGB">
<feFlood flood-opacity="0" result="BackgroundImageFix"/>
<feGaussianBlur in="BackgroundImage" stdDeviation="2"/>
<feComposite in2="SourceAlpha" operator="in" result="effect1_backgroundBlur_0_1"/>
<feBlend mode="normal" in="SourceGraphic" in2="effect1_backgroundBlur_0_1" result="shape"/>
</filter>
<linearGradient id="paint0_linear_0_1" x1="518" y1="1031.8" x2="-619.902" y2="-829.529" gradientUnits="userSpaceOnUse">
<stop offset="0.0647506" stop-color="#FEBDAB" stop-opacity="0.74"/>
<stop offset="0.225114" stop-color="#F3A9F8" stop-opacity="0.66"/>
<stop offset="0.45571" stop-color="#E0D8F0"/>
<stop offset="0.823271" stop-color="#EAF7FE"/>
<stop offset="0.991019" stop-color="#EAF7FE"/>
</linearGradient>
<linearGradient id="paint1_linear_0_1" x1="518" y1="1031.8" x2="-619.902" y2="-829.529" gradientUnits="userSpaceOnUse">
<stop offset="0.0647506" stop-color="#FEBDAB" stop-opacity="0.74"/>
<stop offset="0.225114" stop-color="#F3A9F8" stop-opacity="0.66"/>
<stop offset="0.45571" stop-color="#E0D8F0"/>
<stop offset="0.823271" stop-color="#EAF7FE"/>
<stop offset="0.991019" stop-color="#EAF7FE"/>
</linearGradient>
<linearGradient id="paint2_linear_0_1" x1="518" y1="1031.8" x2="-619.902" y2="-829.529" gradientUnits="userSpaceOnUse">
<stop offset="0.0647506" stop-color="#FED290" stop-opacity="0.7"/>
<stop offset="0.614306" stop-color="#FEBDAB"/>
<stop offset="0.65625" stop-color="#FED290" stop-opacity="0.7"/>
</linearGradient>
<linearGradient id="paint3_linear_0_1" x1="190.557" y1="442.889" x2="393.1" y2="532.913" gradientUnits="userSpaceOnUse">
<stop stop-color="#F9804B"/>
<stop offset="1" stop-color="#FE9013"/>
</linearGradient>
<linearGradient id="paint4_linear_0_1" x1="488.557" y1="442.889" x2="691.1" y2="532.913" gradientUnits="userSpaceOnUse">
<stop stop-color="#F9804B"/>
<stop offset="1" stop-color="#FE9013"/>
</linearGradient>
<linearGradient id="paint5_linear_0_1" x1="786.557" y1="442.889" x2="989.1" y2="532.913" gradientUnits="userSpaceOnUse">
<stop stop-color="#F9804B"/>
<stop offset="1" stop-color="#FE9013"/>
</linearGradient>
<clipPath id="clip0_0_1">
<rect width="1600" height="4975" fill="white" transform="translate(-220 -2678)"/>
</clipPath>
<clipPath id="clip1_0_1">
<rect x="198" y="418" width="168" height="244" rx="5" fill="white"/>
</clipPath>
<clipPath id="clip2_0_1">
<rect x="496" y="418" width="168" height="244" rx="5" fill="white"/>
</clipPath>
<clipPath id="clip3_0_1">
<rect x="794" y="418" width="168" height="244" rx="5" fill="white"/>
</clipPath>
</defs>
</svg>
